<svg xmlns="http://www.w3.org/2000/svg" width="3440" height="1440" viewBox="0 0 3440 1440"><title>Snow — Frozen Reflection</title><defs><filter id="soft1" x="-40%" y="-40%" width="180%" height="180%"><feGaussianBlur stdDeviation="1.2"/></filter><filter id="soft2" x="-80%" y="-80%" width="260%" height="260%"><feGaussianBlur stdDeviation="3"/></filter><filter id="soft3" x="-80%" y="-80%" width="260%" height="260%"><feGaussianBlur stdDeviation="4.5"/></filter><filter id="soft6" x="-60%" y="-60%" width="220%" height="220%"><feGaussianBlur stdDeviation="8"/></filter><linearGradient id="sky" x1="0" y1="0" x2="0" y2="1"><stop offset="0" stop-color="#0a1428" stop-opacity="1"/><stop offset="0.4" stop-color="#16294b" stop-opacity="1"/><stop offset="0.7" stop-color="#2e4a77" stop-opacity="1"/><stop offset="0.92" stop-color="#52709f" stop-opacity="1"/><stop offset="1" stop-color="#6c86ad" stop-opacity="1"/></linearGradient><linearGradient id="lakeg" x1="0" y1="1150" x2="0" y2="1440" gradientUnits="userSpaceOnUse"><stop offset="0" stop-color="#6480ac" stop-opacity="1"/><stop offset="0.5" stop-color="#4d6b9d" stop-opacity="1"/><stop offset="1" stop-color="#3c5a8a" stop-opacity="1"/></linearGradient><linearGradient id="caps4" x1="0" y1="330" x2="0" y2="760" gradientUnits="userSpaceOnUse"><stop offset="0" stop-color="#93aed6" stop-opacity="0.34"/><stop offset="1" stop-color="#93aed6" stop-opacity="0.0"/></linearGradient><linearGradient id="haze4" x1="0" y1="760" x2="0" y2="1150" gradientUnits="userSpaceOnUse"><stop offset="0" stop-color="#5d7aa8" stop-opacity="0.0"/><stop offset="1" stop-color="#5d7aa8" stop-opacity="0.4"/></linearGradient><linearGradient id="reflfade" x1="0" y1="1150" x2="0" y2="1440" gradientUnits="userSpaceOnUse"><stop offset="0" stop-color="#0c1731" stop-opacity="0.0"/><stop offset="1" stop-color="#0c1731" stop-opacity="0.14"/></linearGradient><radialGradient id="vig"><stop offset="0.6" stop-color="#000000" stop-opacity="0.0"/><stop offset="1" stop-color="#040a16" stop-opacity="1"/></radialGradient><radialGradient id="venus"><stop offset="0" stop-color="#f2f6ff" stop-opacity="0.8"/><stop offset="0.25" stop-color="#cfdcf7" stop-opacity="0.2"/><stop offset="1" stop-color="#cfdcf7" stop-opacity="0.0"/></radialGradient><pattern id="hexi" width="156" height="90.1" patternUnits="userSpaceOnUse"><path d="M52,0L26,45L-26,45L-52,0L-26,-45L26,-45Z" transform="translate(0,0)" fill="none" stroke="#cfe0f2" stroke-width="1.0"/><path d="M52,0L26,45L-26,45L-52,0L-26,-45L26,-45Z" transform="translate(156,0)" fill="none" stroke="#cfe0f2" stroke-width="1.0"/><path d="M52,0L26,45L-26,45L-52,0L-26,-45L26,-45Z" transform="translate(0,90.1)" fill="none" stroke="#cfe0f2" stroke-width="1.0"/><path d="M52,0L26,45L-26,45L-52,0L-26,-45L26,-45Z" transform="translate(156,90.1)" fill="none" stroke="#cfe0f2" stroke-width="1.0"/><path d="M52,0L26,45L-26,45L-52,0L-26,-45L26,-45Z" transform="translate(78,45)" fill="none" stroke="#cfe0f2" stroke-width="1.0"/></pattern><radialGradient id="heximg"><stop offset="0" stop-color="#ffffff" stop-opacity="1"/><stop offset="1" stop-color="#ffffff" stop-opacity="0"/></radialGradient><clipPath id="clipMain"><path d="M-4,1010L0,1010L21.2,1003.3L42.5,998L63.8,989.7L85,984.2L106.2,975.3L127.5,969.7L148.8,964.1L170,962L193.8,967.7L217.5,970.4L241.2,973.7L265,973.9L288.8,978.2L312.5,980.5L336.2,986.1L360,995L383.1,984.6L406.2,972.8L429.4,957.1L452.5,944.4L475.6,937.6L498.8,927.6L521.9,916.9L545,905L570.6,911.1L596.2,914.9L621.9,923L647.5,930.1L673.1,933.3L698.8,937.2L724.4,940.2L750,940L776.2,926.9L802.5,909.4L828.8,890.7L855,874.5L881.2,855.3L907.5,836.7L933.8,822.4L960,806L983.8,813.6L1007.5,819.6L1031.2,824.5L1055,830.3L1078.8,832.9L1102.5,835.9L1126.2,844L1150,848L1174.4,823.7L1198.8,801.3L1223.1,773.1L1247.5,747.4L1271.9,723.5L1296.2,697.9L1320.6,670.5L1345,645L1366.9,655.6L1388.8,663.1L1410.6,667.7L1432.5,673.7L1454.4,681.7L1476.2,686.3L1498.1,695.7L1520,706L1542.5,690.3L1565,671.4L1587.5,656.6L1610,639.8L1632.5,622.7L1655,603.8L1677.5,583.8L1700,566L1728.8,553.2L1757.5,543.9L1786.2,529.3L1815,519.6L1843.8,503.9L1872.5,491.5L1901.2,481.6L1930,470L1954.5,456.8L1979,447.4L2003.5,431.5L2028,418L2052.5,404.3L2077,390L2101.5,371.5L2126,356L2144,369.3L2162,383.8L2180,398L2198,414.1L2216,427L2234,438.8L2252,452.1L2270,468L2287.5,466.7L2305,462.2L2322.5,458.5L2340,454.3L2357.5,449.1L2375,442.6L2392.5,437.4L2410,432L2431.2,448.6L2452.5,465.3L2473.8,482.5L2495,496.1L2516.2,514L2537.5,529L2558.8,546.7L2580,562L2603.8,553.3L2627.5,548.7L2651.2,543.3L2675,537.1L2698.8,533.7L2722.5,526.5L2746.2,525.8L2770,524L2793.8,536.5L2817.5,548.9L2841.2,565.1L2865,580L2888.8,595.5L2912.5,613.7L2936.2,631.8L2960,648L2982.5,647.7L3005,645.2L3027.5,640.2L3050,638.6L3072.5,634.2L3095,629.7L3117.5,626.2L3140,622L3160,633.9L3180,646.9L3200,658.2L3220,668.2L3240,683.8L3260,696.4L3280,711.7L3300,724L3317.5,721.1L3335,719.4L3352.5,713.6L3370,709.9L3387.5,707.1L3405,702L3422.5,697.3L3440,692L3444,692L3444,1444L-4,1444Z"/></clipPath><clipPath id="clipMid"><path d="M-4,942L0,942L28.8,933.9L57.5,925.2L86.2,920L115,913.2L143.8,903.7L172.5,897.8L201.2,887.8L230,880L260,881.3L290,884.4L320,884.4L350,888L380,891.7L410,897.7L440,903.2L470,912L501.2,897.2L532.5,884.3L563.8,870.3L595,855.1L626.2,843.6L657.5,833.2L688.8,819.1L720,806L752.5,806.7L785,810L817.5,815.4L850,823L882.5,833.1L915,839.3L947.5,845.3L980,850L1012.5,841.2L1045,831.5L1077.5,818.9L1110,809.3L1142.5,797.3L1175,783.2L1207.5,770.1L1240,760L1275,766.1L1310,773.4L1345,785.8L1380,793.5L1415,803L1450,811.2L1485,815.9L1520,820L1555,807L1590,792.2L1625,781.6L1660,767.7L1695,750.1L1730,729.9L1765,713.6L1800,700L1832.5,701.7L1865,707.6L1897.5,714.2L1930,722.5L1962.5,732.4L1995,744.4L2027.5,750.9L2060,760L2096.2,753.6L2132.5,742.8L2168.8,735L2205,723.4L2241.2,715.7L2277.5,709.8L2313.8,700.7L2350,690L2386.2,696L2422.5,703.1L2458.8,709.4L2495,711.5L2531.2,721.6L2567.5,732.1L2603.8,740.9L2640,752L2676.2,745.2L2712.5,740.9L2748.8,730.9L2785,720.3L2821.2,713.4L2857.5,708.9L2893.8,704.9L2930,700L2963.8,709.9L2997.5,716L3031.2,723.1L3065,731.1L3098.8,739.1L3132.5,749.7L3166.2,758.2L3200,762L3230,756.5L3260,751L3290,742.8L3320,738L3350,735.7L3380,737.1L3410,731.9L3440,730L3444,730L3444,1444L-4,1444Z"/></clipPath><clipPath id="clipFar"><path d="M-4,880L0,880L32.5,869.3L65,861.5L97.5,850.8L130,839.3L162.5,833.3L195,825.2L227.5,820L260,812L292.5,815.2L325,819.6L357.5,825.8L390,831.9L422.5,837.4L455,841.5L487.5,842.5L520,846L555,836.7L590,824.7L625,812.7L660,798.4L695,787.1L730,779.2L765,771L800,762L832.5,764.7L865,768.3L897.5,773.2L930,780.5L962.5,785.8L995,790.3L1027.5,796.9L1060,800L1093.8,793.6L1127.5,786.8L1161.2,778.7L1195,773.6L1228.8,766.7L1262.5,759.9L1296.2,752L1330,742L1366.2,749.9L1402.5,754.2L1438.8,760.3L1475,764.8L1511.2,766.2L1547.5,771.4L1583.8,776.6L1620,778L1655,772L1690,765.2L1725,756.6L1760,751.3L1795,743L1830,737.7L1865,730.2L1900,726L1935,730.1L1970,732.9L2005,738.6L2040,747L2075,751.7L2110,754L2145,759.5L2180,768L2220,764L2260,759.7L2300,751.3L2340,743.4L2380,741L2420,742.7L2460,737.1L2500,736L2540,742.1L2580,744.6L2620,752.8L2660,756.8L2700,762.6L2740,771.9L2780,777L2820,780L2847.5,776.4L2875,769.9L2902.5,765.9L2930,759.4L2957.5,755L2985,748.3L3012.5,744.6L3040,742L3067.5,735.6L3095,727.9L3122.5,718.6L3150,709.3L3177.5,700.6L3205,689.2L3232.5,679.2L3260,668L3282.5,674.8L3305,679.9L3327.5,684.6L3350,687.5L3372.5,692.3L3395,697.6L3417.5,702.4L3440,706L3444,706L3444,1444L-4,1444Z"/></clipPath><clipPath id="clipLake"><rect x="0" y="1150" width="3440" height="290"/></clipPath></defs><rect width="3440" height="1440" fill="url(#sky)"/><g id="sky4stars"><circle cx="1712" cy="419.1" r="1.5" fill="#fdf6e8" opacity="0.72"/><circle cx="1098.9" cy="301.8" r="1.8" fill="#dbe7fa" opacity="0.52"/><circle cx="2324.3" cy="72.4" r="1.3" fill="#dbe7fa" opacity="0.69"/><circle cx="1697.9" cy="732.3" r="0.5" fill="#dbe7fa" opacity="0.09"/><circle cx="1799.8" cy="226.2" r="0.9" fill="#fdf6e8" opacity="0.32"/><circle cx="2257.9" cy="17.4" r="0.7" fill="#cfe0ff" opacity="0.31"/><circle cx="2127.4" cy="741.3" r="0.6" fill="#cfe0ff" opacity="0.16"/><circle cx="2526.1" cy="867.4" r="0.8" fill="#cfe0ff" opacity="0.15"/><circle cx="1897.1" cy="731.4" r="1" fill="#fdf6e8" opacity="0.11"/><circle cx="615.5" cy="562.2" r="1.8" fill="#dbe7fa" opacity="0.29"/><circle cx="5.9" cy="560.6" r="1.5" fill="#dbe7fa" opacity="0.27"/><circle cx="3200.8" cy="177.3" r="0.5" fill="#dbe7fa" opacity="0.62"/><circle cx="3007" cy="431.1" r="0.6" fill="#fdf6e8" opacity="0.48"/><circle cx="3007" cy="431.1" r="2.4" fill="#fdf6e8" opacity="0.08" filter="url(#soft2)"/><circle cx="85.1" cy="63.9" r="1.2" fill="#cfe0ff" opacity="0.83"/><circle cx="2814.6" cy="468.9" r="1.7" fill="#cfe0ff" opacity="0.67"/><circle cx="3149" cy="179" r="0.5" fill="#dbe7fa" opacity="0.25"/><circle cx="9.2" cy="833.5" r="1.9" fill="#dbe7fa" opacity="0.06"/><circle cx="898.7" cy="946" r="0.5" fill="#dbe7fa" opacity="0.04"/><circle cx="1430.5" cy="850.6" r="0.7" fill="#fdf6e8" opacity="0.17"/><circle cx="2169.6" cy="323.7" r="0.5" fill="#cfe0ff" opacity="0.84"/><circle cx="2169.6" cy="323.7" r="2.2" fill="#cfe0ff" opacity="0.13" filter="url(#soft2)"/><circle cx="1168.2" cy="330.1" r="1.9" fill="#dbe7fa" opacity="0.27"/><circle cx="1267.6" cy="190.4" r="1.7" fill="#fdf6e8" opacity="0.87"/><circle cx="891" cy="272" r="1.2" fill="#dbe7fa" opacity="0.89"/><circle cx="2972.9" cy="154.8" r="0.8" fill="#dbe7fa" opacity="0.80"/><circle cx="661.3" cy="707.3" r="0.7" fill="#cfe0ff" opacity="0.41"/><circle cx="142.3" cy="829.3" r="1.8" fill="#cfe0ff" opacity="0.21"/><circle cx="2528.8" cy="477.2" r="1.2" fill="#fdf6e8" opacity="0.73"/><circle cx="2528.8" cy="477.2" r="4.7" fill="#fdf6e8" opacity="0.12" filter="url(#soft2)"/><circle cx="3243.4" cy="713.2" r="1.4" fill="#fdf6e8" opacity="0.39"/><circle cx="96.6" cy="869.2" r="1.6" fill="#fdf6e8" opacity="0.04"/><circle cx="539.9" cy="929.5" r="0.8" fill="#cfe0ff" opacity="0.05"/><circle cx="225.4" cy="447.2" r="1.2" fill="#fdf6e8" opacity="0.77"/><circle cx="2000.2" cy="772.1" r="0.5" fill="#dbe7fa" opacity="0.11"/><circle cx="2459.4" cy="180" r="1.3" fill="#dbe7fa" opacity="0.36"/><circle cx="6.9" cy="426.5" r="1.4" fill="#dbe7fa" opacity="0.82"/><circle cx="387.8" cy="214.1" r="1.1" fill="#dbe7fa" opacity="0.71"/><circle cx="853.4" cy="293.5" r="1.4" fill="#cfe0ff" opacity="0.37"/><circle cx="693.3" cy="653.5" r="0.5" fill="#dbe7fa" opacity="0.47"/><circle cx="220.6" cy="463.8" r="1.3" fill="#fdf6e8" opacity="0.77"/><circle cx="586.8" cy="763.7" r="1.9" fill="#fdf6e8" opacity="0.13"/><circle cx="384.4" cy="677.9" r="0.5" fill="#cfe0ff" opacity="0.44"/><circle cx="3103" cy="151.8" r="0.6" fill="#dbe7fa" opacity="0.74"/><circle cx="3066.1" cy="441.3" r="1" fill="#dbe7fa" opacity="0.72"/><circle cx="2007.5" cy="711.1" r="1.6" fill="#cfe0ff" opacity="0.17"/><circle cx="666.4" cy="757.5" r="0.9" fill="#dbe7fa" opacity="0.17"/><circle cx="915.3" cy="684.4" r="0.5" fill="#cfe0ff" opacity="0.16"/><circle cx="1330.3" cy="440.9" r="1.3" fill="#dbe7fa" opacity="0.41"/><circle cx="2212.9" cy="443.5" r="2" fill="#dbe7fa" opacity="0.19"/><circle cx="3082.7" cy="461.2" r="1.1" fill="#fdf6e8" opacity="0.30"/><circle cx="3271.6" cy="854.1" r="0.7" fill="#cfe0ff" opacity="0.12"/><circle cx="2448.2" cy="487.4" r="1.3" fill="#cfe0ff" opacity="0.25"/><circle cx="384.8" cy="783.1" r="0.5" fill="#dbe7fa" opacity="0.11"/><circle cx="2742.1" cy="446.5" r="1.2" fill="#fdf6e8" opacity="0.71"/><circle cx="3201.9" cy="405.4" r="1.4" fill="#cfe0ff" opacity="0.87"/><circle cx="1960.8" cy="458.2" r="2" fill="#fdf6e8" opacity="0.23"/><circle cx="648.1" cy="70.8" r="0.7" fill="#dbe7fa" opacity="0.69"/><circle cx="1910.7" cy="282.3" r="1.2" fill="#cfe0ff" opacity="0.82"/><circle cx="1378.8" cy="307.6" r="1" fill="#dbe7fa" opacity="0.70"/><circle cx="3303.3" cy="241.7" r="0.8" fill="#dbe7fa" opacity="0.35"/><circle cx="3101.3" cy="34.6" r="1.6" fill="#cfe0ff" opacity="0.29"/><circle cx="2054.7" cy="579.7" r="0.9" fill="#dbe7fa" opacity="0.51"/><circle cx="1990.8" cy="867.4" r="1.8" fill="#dbe7fa" opacity="0.17"/><circle cx="1701.9" cy="62" r="0.9" fill="#cfe0ff" opacity="0.70"/><circle cx="1571.1" cy="47" r="0.5" fill="#cfe0ff" opacity="0.22"/><circle cx="2334.5" cy="773.6" r="0.5" fill="#fdf6e8" opacity="0.08"/><circle cx="1825.5" cy="561.4" r="1.5" fill="#fdf6e8" opacity="0.34"/><circle cx="2903.5" cy="860" r="1.6" fill="#dbe7fa" opacity="0.17"/><circle cx="1503.5" cy="362.2" r="0.6" fill="#dbe7fa" opacity="0.60"/><circle cx="1491.7" cy="628.4" r="1.8" fill="#fdf6e8" opacity="0.20"/><circle cx="2948.5" cy="457.6" r="0.8" fill="#fdf6e8" opacity="0.34"/><circle cx="2948.5" cy="457.6" r="3.4" fill="#fdf6e8" opacity="0.05" filter="url(#soft2)"/><circle cx="798.2" cy="66.2" r="1.5" fill="#dbe7fa" opacity="0.84"/><circle cx="1002.1" cy="677" r="0.6" fill="#fdf6e8" opacity="0.38"/><circle cx="1606.4" cy="369" r="0.8" fill="#dbe7fa" opacity="0.89"/><circle cx="425.5" cy="913.7" r="0.7" fill="#dbe7fa" opacity="0.08"/><circle cx="3042.9" cy="316.2" r="1.7" fill="#cfe0ff" opacity="0.21"/><circle cx="231.3" cy="274.1" r="0.8" fill="#dbe7fa" opacity="0.69"/><circle cx="1836.5" cy="779.5" r="0.6" fill="#dbe7fa" opacity="0.18"/><circle cx="2651.9" cy="859.3" r="0.8" fill="#fdf6e8" opacity="0.15"/><circle cx="752.6" cy="10.3" r="0.5" fill="#cfe0ff" opacity="0.31"/><circle cx="172.4" cy="921.9" r="0.8" fill="#fdf6e8" opacity="0.08"/><circle cx="1675.9" cy="25.4" r="0.5" fill="#cfe0ff" opacity="0.26"/><circle cx="126.2" cy="838.4" r="0.7" fill="#dbe7fa" opacity="0.21"/><circle cx="635.6" cy="469.6" r="1.7" fill="#cfe0ff" opacity="0.77"/><circle cx="372.1" cy="119.8" r="1.3" fill="#dbe7fa" opacity="0.38"/><circle cx="759.8" cy="943.5" r="0.7" fill="#dbe7fa" opacity="0.05"/><circle cx="349.1" cy="777.8" r="1" fill="#dbe7fa" opacity="0.12"/><circle cx="139" cy="821.5" r="1.8" fill="#cfe0ff" opacity="0.24"/><circle cx="2787.8" cy="19.1" r="1.9" fill="#dbe7fa" opacity="0.28"/><circle cx="2440.1" cy="684.8" r="1.2" fill="#fdf6e8" opacity="0.45"/><circle cx="2728.3" cy="90.6" r="1.2" fill="#fdf6e8" opacity="0.28"/><circle cx="3228.3" cy="650.8" r="0.8" fill="#dbe7fa" opacity="0.33"/><circle cx="2323.7" cy="288.3" r="1.4" fill="#cfe0ff" opacity="0.65"/><circle cx="2184.7" cy="356.2" r="1.9" fill="#dbe7fa" opacity="0.86"/><circle cx="2164.5" cy="835.5" r="0.5" fill="#fdf6e8" opacity="0.16"/><circle cx="1521.3" cy="857.4" r="0.9" fill="#dbe7fa" opacity="0.06"/><circle cx="3080.5" cy="28.9" r="1.5" fill="#fdf6e8" opacity="0.45"/><circle cx="2498.8" cy="807.6" r="1" fill="#dbe7fa" opacity="0.25"/><circle cx="845.4" cy="519.8" r="0.5" fill="#fdf6e8" opacity="0.40"/><circle cx="845.4" cy="519.8" r="2.1" fill="#fdf6e8" opacity="0.06" filter="url(#soft2)"/><circle cx="1191.1" cy="690.4" r="0.5" fill="#dbe7fa" opacity="0.15"/><circle cx="2496.5" cy="806.8" r="0.7" fill="#fdf6e8" opacity="0.23"/><circle cx="708.2" cy="746.8" r="0.6" fill="#dbe7fa" opacity="0.27"/><circle cx="1688" cy="679.4" r="0.7" fill="#fdf6e8" opacity="0.38"/><circle cx="1570.5" cy="523.5" r="1.6" fill="#dbe7fa" opacity="0.43"/><circle cx="2206.9" cy="143.3" r="0.5" fill="#cfe0ff" opacity="0.60"/><circle cx="2524.4" cy="916.1" r="0.7" fill="#dbe7fa" opacity="0.03"/><circle cx="307.1" cy="497.6" r="0.7" fill="#dbe7fa" opacity="0.45"/><circle cx="2875.6" cy="729.4" r="0.6" fill="#dbe7fa" opacity="0.32"/><circle cx="2591.3" cy="777.7" r="0.7" fill="#dbe7fa" opacity="0.28"/><circle cx="2591.3" cy="777.7" r="2.8" fill="#dbe7fa" opacity="0.05" filter="url(#soft2)"/><circle cx="840.6" cy="123.6" r="0.5" fill="#dbe7fa" opacity="0.78"/><circle cx="1344.2" cy="126.9" r="0.7" fill="#fdf6e8" opacity="0.21"/><circle cx="514.6" cy="219.6" r="1.8" fill="#cfe0ff" opacity="0.78"/><circle cx="747.5" cy="601.5" r="1" fill="#dbe7fa" opacity="0.38"/><circle cx="1754.7" cy="420.7" r="1" fill="#fdf6e8" opacity="0.27"/><circle cx="2959.9" cy="475.2" r="0.5" fill="#dbe7fa" opacity="0.22"/><circle cx="2244.1" cy="368.3" r="1" fill="#fdf6e8" opacity="0.21"/><circle cx="2105.5" cy="210.5" r="0.9" fill="#cfe0ff" opacity="0.32"/><circle cx="954.1" cy="177.4" r="1.8" fill="#cfe0ff" opacity="0.20"/><circle cx="2808.7" cy="697.2" r="0.5" fill="#dbe7fa" opacity="0.35"/><circle cx="1724.1" cy="600.9" r="1.1" fill="#cfe0ff" opacity="0.55"/><circle cx="872.9" cy="348" r="1.3" fill="#dbe7fa" opacity="0.77"/><circle cx="2986.8" cy="389.3" r="2" fill="#fdf6e8" opacity="0.67"/><circle cx="1241.7" cy="785.8" r="0.6" fill="#cfe0ff" opacity="0.26"/><circle cx="1694.3" cy="301.4" r="1" fill="#dbe7fa" opacity="0.74"/><circle cx="997" cy="129" r="1.1" fill="#dbe7fa" opacity="0.56"/><circle cx="529.1" cy="637.4" r="1.3" fill="#dbe7fa" opacity="0.16"/><circle cx="726.7" cy="590.2" r="0.5" fill="#dbe7fa" opacity="0.56"/><circle cx="295.5" cy="179.2" r="1.4" fill="#dbe7fa" opacity="0.73"/><circle cx="295.5" cy="179.2" r="5.6" fill="#dbe7fa" opacity="0.12" filter="url(#soft2)"/><circle cx="1317.5" cy="391.6" r="0.6" fill="#dbe7fa" opacity="0.72"/><circle cx="1569" cy="502.4" r="1" fill="#dbe7fa" opacity="0.39"/><circle cx="2614.8" cy="887.3" r="0.5" fill="#dbe7fa" opacity="0.05"/><circle cx="1765.4" cy="347.8" r="0.5" fill="#cfe0ff" opacity="0.33"/><circle cx="2266.9" cy="509.1" r="1.6" fill="#fdf6e8" opacity="0.57"/><circle cx="2574.6" cy="902.5" r="1.1" fill="#cfe0ff" opacity="0.07"/><circle cx="1668.5" cy="421.3" r="1.5" fill="#dbe7fa" opacity="0.73"/><circle cx="188.1" cy="665.6" r="0.7" fill="#cfe0ff" opacity="0.36"/><circle cx="1977.3" cy="363.3" r="0.5" fill="#dbe7fa" opacity="0.31"/><circle cx="1705.8" cy="185" r="0.7" fill="#dbe7fa" opacity="0.22"/><circle cx="2031.9" cy="213.5" r="1.1" fill="#cfe0ff" opacity="0.76"/><circle cx="2744.4" cy="237.6" r="1.7" fill="#cfe0ff" opacity="0.91"/><circle cx="1465.4" cy="43.7" r="1.2" fill="#cfe0ff" opacity="0.92"/><circle cx="2943.4" cy="719.4" r="0.5" fill="#dbe7fa" opacity="0.27"/><circle cx="3108.2" cy="754.9" r="0.6" fill="#fdf6e8" opacity="0.21"/><circle cx="542.9" cy="490.4" r="1" fill="#cfe0ff" opacity="0.62"/><circle cx="749" cy="505.2" r="0.8" fill="#dbe7fa" opacity="0.66"/><circle cx="3168.2" cy="623.7" r="0.5" fill="#dbe7fa" opacity="0.13"/><circle cx="96.9" cy="280.4" r="0.5" fill="#fdf6e8" opacity="0.50"/><circle cx="2061.3" cy="503.9" r="0.6" fill="#cfe0ff" opacity="0.26"/><circle cx="3005.3" cy="840.4" r="1.5" fill="#cfe0ff" opacity="0.12"/><circle cx="716.8" cy="514.8" r="0.5" fill="#dbe7fa" opacity="0.67"/><circle cx="2023.3" cy="566.1" r="1" fill="#fdf6e8" opacity="0.50"/><circle cx="940.1" cy="174.1" r="1.7" fill="#fdf6e8" opacity="0.52"/><circle cx="3288.8" cy="356.2" r="1.6" fill="#dbe7fa" opacity="0.34"/><circle cx="568.7" cy="196.7" r="1.7" fill="#fdf6e8" opacity="0.86"/><circle cx="1258.6" cy="915" r="0.5" fill="#fdf6e8" opacity="0.07"/><circle cx="2542" cy="600.9" r="1.4" fill="#cfe0ff" opacity="0.36"/><circle cx="1724.8" cy="325.2" r="0.5" fill="#dbe7fa" opacity="0.59"/><circle cx="1931.9" cy="146.6" r="1.7" fill="#cfe0ff" opacity="0.31"/><circle cx="1298.3" cy="148.6" r="0.5" fill="#cfe0ff" opacity="0.28"/><circle cx="2048.3" cy="748.2" r="1.6" fill="#cfe0ff" opacity="0.21"/><circle cx="2157.2" cy="872.5" r="1.6" fill="#dbe7fa" opacity="0.09"/><circle cx="3310.4" cy="808.9" r="0.7" fill="#fdf6e8" opacity="0.16"/><circle cx="2129" cy="390" r="1.9" fill="#fdf6e8" opacity="0.38"/><circle cx="2129" cy="390" r="7.8" fill="#fdf6e8" opacity="0.06" filter="url(#soft2)"/><circle cx="596.7" cy="526.9" r="0.7" fill="#dbe7fa" opacity="0.31"/><circle cx="2865.3" cy="706.6" r="1.4" fill="#cfe0ff" opacity="0.10"/><circle cx="712" cy="328.7" r="0.5" fill="#dbe7fa" opacity="0.37"/><circle cx="1612" cy="659" r="0.5" fill="#dbe7fa" opacity="0.48"/><circle cx="693.4" cy="716.7" r="0.5" fill="#fdf6e8" opacity="0.29"/><circle cx="1676.1" cy="659" r="1.4" fill="#fdf6e8" opacity="0.40"/><circle cx="608.9" cy="882.8" r="1.8" fill="#fdf6e8" opacity="0.11"/><circle cx="1247.5" cy="37.7" r="1.3" fill="#cfe0ff" opacity="0.35"/><circle cx="1860" cy="564.9" r="1.1" fill="#cfe0ff" opacity="0.37"/><circle cx="3150.6" cy="638.6" r="0.9" fill="#fdf6e8" opacity="0.32"/><circle cx="988.4" cy="121.8" r="0.5" fill="#dbe7fa" opacity="0.57"/><circle cx="1000.2" cy="280.7" r="0.5" fill="#dbe7fa" opacity="0.55"/><circle cx="2973.9" cy="497" r="0.6" fill="#dbe7fa" opacity="0.27"/><circle cx="2325.3" cy="550.3" r="1.6" fill="#dbe7fa" opacity="0.20"/><circle cx="2325.3" cy="550.3" r="6.4" fill="#dbe7fa" opacity="0.03" filter="url(#soft2)"/><circle cx="2627.1" cy="263.8" r="1.3" fill="#cfe0ff" opacity="0.66"/><circle cx="2151" cy="395.1" r="1.2" fill="#fdf6e8" opacity="0.45"/><circle cx="2920.2" cy="500.8" r="0.6" fill="#dbe7fa" opacity="0.41"/><circle cx="1676.1" cy="794" r="0.5" fill="#dbe7fa" opacity="0.16"/><circle cx="3376.8" cy="451.9" r="0.6" fill="#fdf6e8" opacity="0.43"/><circle cx="923.7" cy="94.7" r="1" fill="#dbe7fa" opacity="0.43"/><circle cx="2690.9" cy="647.8" r="1.6" fill="#dbe7fa" opacity="0.23"/><circle cx="3335.1" cy="171.3" r="1.2" fill="#dbe7fa" opacity="0.59"/><circle cx="2146.9" cy="762.3" r="1.8" fill="#dbe7fa" opacity="0.10"/><circle cx="1900.6" cy="805.3" r="1.2" fill="#cfe0ff" opacity="0.25"/><circle cx="2653.1" cy="439.8" r="0.6" fill="#cfe0ff" opacity="0.21"/><circle cx="2653.1" cy="439.8" r="2.5" fill="#cfe0ff" opacity="0.03" filter="url(#soft2)"/><circle cx="879.4" cy="677.6" r="0.5" fill="#cfe0ff" opacity="0.26"/><circle cx="3297.3" cy="481.4" r="0.6" fill="#fdf6e8" opacity="0.72"/><circle cx="3018.4" cy="666.5" r="0.6" fill="#dbe7fa" opacity="0.44"/><circle cx="2014.7" cy="685" r="0.6" fill="#fdf6e8" opacity="0.40"/><circle cx="2472.7" cy="647.5" r="1.6" fill="#cfe0ff" opacity="0.26"/><circle cx="1575.7" cy="565.2" r="0.9" fill="#cfe0ff" opacity="0.39"/><circle cx="1107.4" cy="133.4" r="0.9" fill="#dbe7fa" opacity="0.39"/><circle cx="1494.3" cy="276.5" r="0.6" fill="#dbe7fa" opacity="0.43"/><circle cx="1956.9" cy="796.3" r="1.5" fill="#dbe7fa" opacity="0.18"/><circle cx="1381.4" cy="168.2" r="1.4" fill="#fdf6e8" opacity="0.36"/><circle cx="3066.8" cy="112.2" r="1.9" fill="#dbe7fa" opacity="0.72"/><circle cx="3438.6" cy="785.6" r="0.6" fill="#dbe7fa" opacity="0.28"/><circle cx="2075.2" cy="842.5" r="1.3" fill="#fdf6e8" opacity="0.18"/><circle cx="2344.9" cy="688.6" r="0.7" fill="#dbe7fa" opacity="0.29"/><circle cx="134.8" cy="511.4" r="0.6" fill="#cfe0ff" opacity="0.37"/><circle cx="3130.1" cy="39.8" r="0.9" fill="#dbe7fa" opacity="0.70"/><circle cx="3070.9" cy="136.7" r="1.3" fill="#fdf6e8" opacity="0.70"/><circle cx="675.5" cy="697.5" r="1.2" fill="#dbe7fa" opacity="0.28"/><circle cx="795.6" cy="310.3" r="0.9" fill="#dbe7fa" opacity="0.55"/><circle cx="1904.7" cy="169.3" r="1.2" fill="#dbe7fa" opacity="0.35"/><circle cx="2037.8" cy="694.6" r="0.5" fill="#dbe7fa" opacity="0.16"/><circle cx="2467.6" cy="126.6" r="0.6" fill="#dbe7fa" opacity="0.75"/><circle cx="2980.9" cy="510.6" r="0.5" fill="#cfe0ff" opacity="0.39"/><circle cx="1893.5" cy="807.5" r="0.6" fill="#dbe7fa" opacity="0.22"/><circle cx="107.2" cy="207" r="1.3" fill="#dbe7fa" opacity="0.33"/><circle cx="502.5" cy="500.3" r="1.1" fill="#cfe0ff" opacity="0.67"/><circle cx="678.8" cy="275.2" r="0.6" fill="#dbe7fa" opacity="0.39"/><circle cx="2248.7" cy="299.7" r="0.5" fill="#fdf6e8" opacity="0.27"/><circle cx="244.4" cy="495.2" r="0.8" fill="#cfe0ff" opacity="0.58"/><circle cx="2328.7" cy="56.8" r="0.8" fill="#cfe0ff" opacity="0.74"/><circle cx="1494.8" cy="852.5" r="1.6" fill="#dbe7fa" opacity="0.09"/><circle cx="2762.3" cy="641.8" r="0.5" fill="#dbe7fa" opacity="0.23"/><circle cx="2506.1" cy="45.4" r="0.9" fill="#dbe7fa" opacity="0.38"/><circle cx="808.6" cy="603.4" r="0.8" fill="#dbe7fa" opacity="0.29"/><circle cx="1924" cy="140" r="0.5" fill="#dbe7fa" opacity="0.87"/></g><text x="2763" y="120.9" font-family="DejaVu Sans Mono,monospace" font-size="13" fill="#cfe0f2" opacity="0.09">1</text><text x="1080.5" y="271.3" font-family="DejaVu Sans Mono,monospace" font-size="13" fill="#cfe0f2" opacity="0.09">0</text><text x="119.7" y="279.9" font-family="DejaVu Sans Mono,monospace" font-size="13" fill="#cfe0f2" opacity="0.10">0</text><text x="2345.8" y="398.6" font-family="DejaVu Sans Mono,monospace" font-size="13" fill="#cfe0f2" opacity="0.09">1</text><text x="413" y="143.2" font-family="DejaVu Sans Mono,monospace" font-size="13" fill="#cfe0f2" opacity="0.09">0</text><text x="590.2" y="203" font-family="DejaVu Sans Mono,monospace" font-size="13" fill="#cfe0f2" opacity="0.07">1</text><text x="1819" y="326.1" font-family="DejaVu Sans Mono,monospace" font-size="13" fill="#cfe0f2" opacity="0.09">0</text><text x="1930.5" y="198.5" font-family="DejaVu Sans Mono,monospace" font-size="13" fill="#cfe0f2" opacity="0.09">1</text><text x="1909.4" y="205.6" font-family="DejaVu Sans Mono,monospace" font-size="13" fill="#cfe0f2" opacity="0.09">0</text><text x="2621.5" y="257.8" font-family="DejaVu Sans Mono,monospace" font-size="13" fill="#cfe0f2" opacity="0.09">0</text><circle cx="2700" cy="298" r="42" fill="url(#venus)"/><circle cx="2700" cy="298" r="2.6" fill="#f5f8ff" opacity="0.95"/><g id="ridges4"><path d="M-4,880L0,880L32.5,869.3L65,861.5L97.5,850.8L130,839.3L162.5,833.3L195,825.2L227.5,820L260,812L292.5,815.2L325,819.6L357.5,825.8L390,831.9L422.5,837.4L455,841.5L487.5,842.5L520,846L555,836.7L590,824.7L625,812.7L660,798.4L695,787.1L730,779.2L765,771L800,762L832.5,764.7L865,768.3L897.5,773.2L930,780.5L962.5,785.8L995,790.3L1027.5,796.9L1060,800L1093.8,793.6L1127.5,786.8L1161.2,778.7L1195,773.6L1228.8,766.7L1262.5,759.9L1296.2,752L1330,742L1366.2,749.9L1402.5,754.2L1438.8,760.3L1475,764.8L1511.2,766.2L1547.5,771.4L1583.8,776.6L1620,778L1655,772L1690,765.2L1725,756.6L1760,751.3L1795,743L1830,737.7L1865,730.2L1900,726L1935,730.1L1970,732.9L2005,738.6L2040,747L2075,751.7L2110,754L2145,759.5L2180,768L2220,764L2260,759.7L2300,751.3L2340,743.4L2380,741L2420,742.7L2460,737.1L2500,736L2540,742.1L2580,744.6L2620,752.8L2660,756.8L2700,762.6L2740,771.9L2780,777L2820,780L2847.5,776.4L2875,769.9L2902.5,765.9L2930,759.4L2957.5,755L2985,748.3L3012.5,744.6L3040,742L3067.5,735.6L3095,727.9L3122.5,718.6L3150,709.3L3177.5,700.6L3205,689.2L3232.5,679.2L3260,668L3282.5,674.8L3305,679.9L3327.5,684.6L3350,687.5L3372.5,692.3L3395,697.6L3417.5,702.4L3440,706L3444,706L3444,1444L-4,1444Z" fill="#2c4670"/><path d="M-4,942L0,942L28.8,933.9L57.5,925.2L86.2,920L115,913.2L143.8,903.7L172.5,897.8L201.2,887.8L230,880L260,881.3L290,884.4L320,884.4L350,888L380,891.7L410,897.7L440,903.2L470,912L501.2,897.2L532.5,884.3L563.8,870.3L595,855.1L626.2,843.6L657.5,833.2L688.8,819.1L720,806L752.5,806.7L785,810L817.5,815.4L850,823L882.5,833.1L915,839.3L947.5,845.3L980,850L1012.5,841.2L1045,831.5L1077.5,818.9L1110,809.3L1142.5,797.3L1175,783.2L1207.5,770.1L1240,760L1275,766.1L1310,773.4L1345,785.8L1380,793.5L1415,803L1450,811.2L1485,815.9L1520,820L1555,807L1590,792.2L1625,781.6L1660,767.7L1695,750.1L1730,729.9L1765,713.6L1800,700L1832.5,701.7L1865,707.6L1897.5,714.2L1930,722.5L1962.5,732.4L1995,744.4L2027.5,750.9L2060,760L2096.2,753.6L2132.5,742.8L2168.8,735L2205,723.4L2241.2,715.7L2277.5,709.8L2313.8,700.7L2350,690L2386.2,696L2422.5,703.1L2458.8,709.4L2495,711.5L2531.2,721.6L2567.5,732.1L2603.8,740.9L2640,752L2676.2,745.2L2712.5,740.9L2748.8,730.9L2785,720.3L2821.2,713.4L2857.5,708.9L2893.8,704.9L2930,700L2963.8,709.9L2997.5,716L3031.2,723.1L3065,731.1L3098.8,739.1L3132.5,749.7L3166.2,758.2L3200,762L3230,756.5L3260,751L3290,742.8L3320,738L3350,735.7L3380,737.1L3410,731.9L3440,730L3444,730L3444,1444L-4,1444Z" fill="#1d3358"/><g clip-path="url(#clipMid)"><rect width="3440" height="1440" fill="url(#caps4)" opacity="0.5"/></g><path d="M-4,1010L0,1010L21.2,1003.3L42.5,998L63.8,989.7L85,984.2L106.2,975.3L127.5,969.7L148.8,964.1L170,962L193.8,967.7L217.5,970.4L241.2,973.7L265,973.9L288.8,978.2L312.5,980.5L336.2,986.1L360,995L383.1,984.6L406.2,972.8L429.4,957.1L452.5,944.4L475.6,937.6L498.8,927.6L521.9,916.9L545,905L570.6,911.1L596.2,914.9L621.9,923L647.5,930.1L673.1,933.3L698.8,937.2L724.4,940.2L750,940L776.2,926.9L802.5,909.4L828.8,890.7L855,874.5L881.2,855.3L907.5,836.7L933.8,822.4L960,806L983.8,813.6L1007.5,819.6L1031.2,824.5L1055,830.3L1078.8,832.9L1102.5,835.9L1126.2,844L1150,848L1174.4,823.7L1198.8,801.3L1223.1,773.1L1247.5,747.4L1271.9,723.5L1296.2,697.9L1320.6,670.5L1345,645L1366.9,655.6L1388.8,663.1L1410.6,667.7L1432.5,673.7L1454.4,681.7L1476.2,686.3L1498.1,695.7L1520,706L1542.5,690.3L1565,671.4L1587.5,656.6L1610,639.8L1632.5,622.7L1655,603.8L1677.5,583.8L1700,566L1728.8,553.2L1757.5,543.9L1786.2,529.3L1815,519.6L1843.8,503.9L1872.5,491.5L1901.2,481.6L1930,470L1954.5,456.8L1979,447.4L2003.5,431.5L2028,418L2052.5,404.3L2077,390L2101.5,371.5L2126,356L2144,369.3L2162,383.8L2180,398L2198,414.1L2216,427L2234,438.8L2252,452.1L2270,468L2287.5,466.7L2305,462.2L2322.5,458.5L2340,454.3L2357.5,449.1L2375,442.6L2392.5,437.4L2410,432L2431.2,448.6L2452.5,465.3L2473.8,482.5L2495,496.1L2516.2,514L2537.5,529L2558.8,546.7L2580,562L2603.8,553.3L2627.5,548.7L2651.2,543.3L2675,537.1L2698.8,533.7L2722.5,526.5L2746.2,525.8L2770,524L2793.8,536.5L2817.5,548.9L2841.2,565.1L2865,580L2888.8,595.5L2912.5,613.7L2936.2,631.8L2960,648L2982.5,647.7L3005,645.2L3027.5,640.2L3050,638.6L3072.5,634.2L3095,629.7L3117.5,626.2L3140,622L3160,633.9L3180,646.9L3200,658.2L3220,668.2L3240,683.8L3260,696.4L3280,711.7L3300,724L3317.5,721.1L3335,719.4L3352.5,713.6L3370,709.9L3387.5,707.1L3405,702L3422.5,697.3L3440,692L3444,692L3444,1444L-4,1444Z" fill="#12213f"/><g clip-path="url(#clipMain)"><rect width="3440" height="1440" fill="url(#caps4)"/></g></g><path d="M0,1010L21.2,1003.3L42.5,998L63.8,989.7L85,984.2L106.2,975.3L127.5,969.7L148.8,964.1L170,962L193.8,967.7L217.5,970.4L241.2,973.7L265,973.9L288.8,978.2L312.5,980.5L336.2,986.1L360,995L383.1,984.6L406.2,972.8L429.4,957.1L452.5,944.4L475.6,937.6L498.8,927.6L521.9,916.9L545,905L570.6,911.1L596.2,914.9L621.9,923L647.5,930.1L673.1,933.3L698.8,937.2L724.4,940.2L750,940L776.2,926.9L802.5,909.4L828.8,890.7L855,874.5L881.2,855.3L907.5,836.7L933.8,822.4L960,806L983.8,813.6L1007.5,819.6L1031.2,824.5L1055,830.3L1078.8,832.9L1102.5,835.9L1126.2,844L1150,848L1174.4,823.7L1198.8,801.3L1223.1,773.1L1247.5,747.4L1271.9,723.5L1296.2,697.9L1320.6,670.5L1345,645L1366.9,655.6L1388.8,663.1L1410.6,667.7L1432.5,673.7L1454.4,681.7L1476.2,686.3L1498.1,695.7L1520,706L1542.5,690.3L1565,671.4L1587.5,656.6L1610,639.8L1632.5,622.7L1655,603.8L1677.5,583.8L1700,566L1728.8,553.2L1757.5,543.9L1786.2,529.3L1815,519.6L1843.8,503.9L1872.5,491.5L1901.2,481.6L1930,470L1954.5,456.8L1979,447.4L2003.5,431.5L2028,418L2052.5,404.3L2077,390L2101.5,371.5L2126,356L2144,369.3L2162,383.8L2180,398L2198,414.1L2216,427L2234,438.8L2252,452.1L2270,468L2287.5,466.7L2305,462.2L2322.5,458.5L2340,454.3L2357.5,449.1L2375,442.6L2392.5,437.4L2410,432L2431.2,448.6L2452.5,465.3L2473.8,482.5L2495,496.1L2516.2,514L2537.5,529L2558.8,546.7L2580,562L2603.8,553.3L2627.5,548.7L2651.2,543.3L2675,537.1L2698.8,533.7L2722.5,526.5L2746.2,525.8L2770,524L2793.8,536.5L2817.5,548.9L2841.2,565.1L2865,580L2888.8,595.5L2912.5,613.7L2936.2,631.8L2960,648L2982.5,647.7L3005,645.2L3027.5,640.2L3050,638.6L3072.5,634.2L3095,629.7L3117.5,626.2L3140,622L3160,633.9L3180,646.9L3200,658.2L3220,668.2L3240,683.8L3260,696.4L3280,711.7L3300,724L3317.5,721.1L3335,719.4L3352.5,713.6L3370,709.9L3387.5,707.1L3405,702L3422.5,697.3L3440,692" fill="none" stroke="#8fa9cf" stroke-width="2" opacity="0.3"/><rect width="3440" height="1440" fill="url(#haze4)"/><rect x="0" y="1150" width="3440" height="290" fill="url(#lakeg)"/><g clip-path="url(#clipLake)"><ellipse cx="2126" cy="1442" rx="860" ry="130" fill="#93a9cd" opacity="0.22" filter="url(#soft6)"/><g transform="translate(0,1150) scale(1,-0.3) translate(0,-1150)" opacity="0.8" filter="url(#soft2)"><path d="M-4,880L0,880L32.5,869.3L65,861.5L97.5,850.8L130,839.3L162.5,833.3L195,825.2L227.5,820L260,812L292.5,815.2L325,819.6L357.5,825.8L390,831.9L422.5,837.4L455,841.5L487.5,842.5L520,846L555,836.7L590,824.7L625,812.7L660,798.4L695,787.1L730,779.2L765,771L800,762L832.5,764.7L865,768.3L897.5,773.2L930,780.5L962.5,785.8L995,790.3L1027.5,796.9L1060,800L1093.8,793.6L1127.5,786.8L1161.2,778.7L1195,773.6L1228.8,766.7L1262.5,759.9L1296.2,752L1330,742L1366.2,749.9L1402.5,754.2L1438.8,760.3L1475,764.8L1511.2,766.2L1547.5,771.4L1583.8,776.6L1620,778L1655,772L1690,765.2L1725,756.6L1760,751.3L1795,743L1830,737.7L1865,730.2L1900,726L1935,730.1L1970,732.9L2005,738.6L2040,747L2075,751.7L2110,754L2145,759.5L2180,768L2220,764L2260,759.7L2300,751.3L2340,743.4L2380,741L2420,742.7L2460,737.1L2500,736L2540,742.1L2580,744.6L2620,752.8L2660,756.8L2700,762.6L2740,771.9L2780,777L2820,780L2847.5,776.4L2875,769.9L2902.5,765.9L2930,759.4L2957.5,755L2985,748.3L3012.5,744.6L3040,742L3067.5,735.6L3095,727.9L3122.5,718.6L3150,709.3L3177.5,700.6L3205,689.2L3232.5,679.2L3260,668L3282.5,674.8L3305,679.9L3327.5,684.6L3350,687.5L3372.5,692.3L3395,697.6L3417.5,702.4L3440,706L3444,706L3444,1444L-4,1444Z" fill="#2c4670"/><path d="M-4,942L0,942L28.8,933.9L57.5,925.2L86.2,920L115,913.2L143.8,903.7L172.5,897.8L201.2,887.8L230,880L260,881.3L290,884.4L320,884.4L350,888L380,891.7L410,897.7L440,903.2L470,912L501.2,897.2L532.5,884.3L563.8,870.3L595,855.1L626.2,843.6L657.5,833.2L688.8,819.1L720,806L752.5,806.7L785,810L817.5,815.4L850,823L882.5,833.1L915,839.3L947.5,845.3L980,850L1012.5,841.2L1045,831.5L1077.5,818.9L1110,809.3L1142.5,797.3L1175,783.2L1207.5,770.1L1240,760L1275,766.1L1310,773.4L1345,785.8L1380,793.5L1415,803L1450,811.2L1485,815.9L1520,820L1555,807L1590,792.2L1625,781.6L1660,767.7L1695,750.1L1730,729.9L1765,713.6L1800,700L1832.5,701.7L1865,707.6L1897.5,714.2L1930,722.5L1962.5,732.4L1995,744.4L2027.5,750.9L2060,760L2096.2,753.6L2132.5,742.8L2168.8,735L2205,723.4L2241.2,715.7L2277.5,709.8L2313.8,700.7L2350,690L2386.2,696L2422.5,703.1L2458.8,709.4L2495,711.5L2531.2,721.6L2567.5,732.1L2603.8,740.9L2640,752L2676.2,745.2L2712.5,740.9L2748.8,730.9L2785,720.3L2821.2,713.4L2857.5,708.9L2893.8,704.9L2930,700L2963.8,709.9L2997.5,716L3031.2,723.1L3065,731.1L3098.8,739.1L3132.5,749.7L3166.2,758.2L3200,762L3230,756.5L3260,751L3290,742.8L3320,738L3350,735.7L3380,737.1L3410,731.9L3440,730L3444,730L3444,1444L-4,1444Z" fill="#1d3358"/><g clip-path="url(#clipMid)"><rect width="3440" height="1440" fill="url(#caps4)" opacity="0.5"/></g><path d="M-4,1010L0,1010L21.2,1003.3L42.5,998L63.8,989.7L85,984.2L106.2,975.3L127.5,969.7L148.8,964.1L170,962L193.8,967.7L217.5,970.4L241.2,973.7L265,973.9L288.8,978.2L312.5,980.5L336.2,986.1L360,995L383.1,984.6L406.2,972.8L429.4,957.1L452.5,944.4L475.6,937.6L498.8,927.6L521.9,916.9L545,905L570.6,911.1L596.2,914.9L621.9,923L647.5,930.1L673.1,933.3L698.8,937.2L724.4,940.2L750,940L776.2,926.9L802.5,909.4L828.8,890.7L855,874.5L881.2,855.3L907.5,836.7L933.8,822.4L960,806L983.8,813.6L1007.5,819.6L1031.2,824.5L1055,830.3L1078.8,832.9L1102.5,835.9L1126.2,844L1150,848L1174.4,823.7L1198.8,801.3L1223.1,773.1L1247.5,747.4L1271.9,723.5L1296.2,697.9L1320.6,670.5L1345,645L1366.9,655.6L1388.8,663.1L1410.6,667.7L1432.5,673.7L1454.4,681.7L1476.2,686.3L1498.1,695.7L1520,706L1542.5,690.3L1565,671.4L1587.5,656.6L1610,639.8L1632.5,622.7L1655,603.8L1677.5,583.8L1700,566L1728.8,553.2L1757.5,543.9L1786.2,529.3L1815,519.6L1843.8,503.9L1872.5,491.5L1901.2,481.6L1930,470L1954.5,456.8L1979,447.4L2003.5,431.5L2028,418L2052.5,404.3L2077,390L2101.5,371.5L2126,356L2144,369.3L2162,383.8L2180,398L2198,414.1L2216,427L2234,438.8L2252,452.1L2270,468L2287.5,466.7L2305,462.2L2322.5,458.5L2340,454.3L2357.5,449.1L2375,442.6L2392.5,437.4L2410,432L2431.2,448.6L2452.5,465.3L2473.8,482.5L2495,496.1L2516.2,514L2537.5,529L2558.8,546.7L2580,562L2603.8,553.3L2627.5,548.7L2651.2,543.3L2675,537.1L2698.8,533.7L2722.5,526.5L2746.2,525.8L2770,524L2793.8,536.5L2817.5,548.9L2841.2,565.1L2865,580L2888.8,595.5L2912.5,613.7L2936.2,631.8L2960,648L2982.5,647.7L3005,645.2L3027.5,640.2L3050,638.6L3072.5,634.2L3095,629.7L3117.5,626.2L3140,622L3160,633.9L3180,646.9L3200,658.2L3220,668.2L3240,683.8L3260,696.4L3280,711.7L3300,724L3317.5,721.1L3335,719.4L3352.5,713.6L3370,709.9L3387.5,707.1L3405,702L3422.5,697.3L3440,692L3444,692L3444,1444L-4,1444Z" fill="#12213f"/><g clip-path="url(#clipMain)"><rect width="3440" height="1440" fill="url(#caps4)"/></g><path d="M0,1010L21.2,1003.3L42.5,998L63.8,989.7L85,984.2L106.2,975.3L127.5,969.7L148.8,964.1L170,962L193.8,967.7L217.5,970.4L241.2,973.7L265,973.9L288.8,978.2L312.5,980.5L336.2,986.1L360,995L383.1,984.6L406.2,972.8L429.4,957.1L452.5,944.4L475.6,937.6L498.8,927.6L521.9,916.9L545,905L570.6,911.1L596.2,914.9L621.9,923L647.5,930.1L673.1,933.3L698.8,937.2L724.4,940.2L750,940L776.2,926.9L802.5,909.4L828.8,890.7L855,874.5L881.2,855.3L907.5,836.7L933.8,822.4L960,806L983.8,813.6L1007.5,819.6L1031.2,824.5L1055,830.3L1078.8,832.9L1102.5,835.9L1126.2,844L1150,848L1174.4,823.7L1198.8,801.3L1223.1,773.1L1247.5,747.4L1271.9,723.5L1296.2,697.9L1320.6,670.5L1345,645L1366.9,655.6L1388.8,663.1L1410.6,667.7L1432.5,673.7L1454.4,681.7L1476.2,686.3L1498.1,695.7L1520,706L1542.5,690.3L1565,671.4L1587.5,656.6L1610,639.8L1632.5,622.7L1655,603.8L1677.5,583.8L1700,566L1728.8,553.2L1757.5,543.9L1786.2,529.3L1815,519.6L1843.8,503.9L1872.5,491.5L1901.2,481.6L1930,470L1954.5,456.8L1979,447.4L2003.5,431.5L2028,418L2052.5,404.3L2077,390L2101.5,371.5L2126,356L2144,369.3L2162,383.8L2180,398L2198,414.1L2216,427L2234,438.8L2252,452.1L2270,468L2287.5,466.7L2305,462.2L2322.5,458.5L2340,454.3L2357.5,449.1L2375,442.6L2392.5,437.4L2410,432L2431.2,448.6L2452.5,465.3L2473.8,482.5L2495,496.1L2516.2,514L2537.5,529L2558.8,546.7L2580,562L2603.8,553.3L2627.5,548.7L2651.2,543.3L2675,537.1L2698.8,533.7L2722.5,526.5L2746.2,525.8L2770,524L2793.8,536.5L2817.5,548.9L2841.2,565.1L2865,580L2888.8,595.5L2912.5,613.7L2936.2,631.8L2960,648L2982.5,647.7L3005,645.2L3027.5,640.2L3050,638.6L3072.5,634.2L3095,629.7L3117.5,626.2L3140,622L3160,633.9L3180,646.9L3200,658.2L3220,668.2L3240,683.8L3260,696.4L3280,711.7L3300,724L3317.5,721.1L3335,719.4L3352.5,713.6L3370,709.9L3387.5,707.1L3405,702L3422.5,697.3L3440,692" fill="none" stroke="#8fa9cf" stroke-width="3" opacity="0.5"/></g><g transform="translate(0,1150) scale(1,-0.3) translate(0,-1150)" opacity="0.12" filter="url(#soft1)"><use href="#sky4stars"/></g><rect width="3440" height="1440" fill="url(#reflfade)"/><rect x="942.1" y="1225.4" width="1241.3" height="2.1" fill="#dfeaf8" opacity="0.09"/><rect x="1394.6" y="1355.8" width="1485.9" height="2.1" fill="#dfeaf8" opacity="0.08"/><rect x="2788.6" y="1359" width="777.5" height="1.8" fill="#dfeaf8" opacity="0.09"/><rect x="2739" y="1334.4" width="1397.1" height="1.2" fill="#dfeaf8" opacity="0.04"/><rect x="3037.7" y="1362.1" width="1000.8" height="2" fill="#dfeaf8" opacity="0.07"/><rect x="2514.6" y="1283.2" width="1210.7" height="2.2" fill="#dfeaf8" opacity="0.07"/><rect x="2062" y="1158.9" width="1252.4" height="1.9" fill="#dfeaf8" opacity="0.05"/><rect x="1019.4" y="1252.7" width="1349.2" height="1.8" fill="#dfeaf8" opacity="0.09"/><rect x="1502.9" y="1190" width="1327.7" height="1.5" fill="#dfeaf8" opacity="0.09"/><rect x="1611.7" y="1308.7" width="1131.4" height="1.6" fill="#dfeaf8" opacity="0.08"/><rect x="2294.1" y="1310.3" width="426.2" height="1.2" fill="#dfeaf8" opacity="0.03"/><rect x="2866.9" y="1345.7" width="1183.1" height="1.9" fill="#dfeaf8" opacity="0.06"/><rect x="1091.6" y="1348.4" width="849.3" height="2.1" fill="#dfeaf8" opacity="0.07"/><rect x="911.5" y="1257.3" width="689.5" height="1.6" fill="#dfeaf8" opacity="0.04"/><rect x="38.3" y="1294.4" width="484.5" height="1.4" fill="#dfeaf8" opacity="0.07"/><rect x="1797.1" y="1258.8" width="1043.8" height="1.1" fill="#dfeaf8" opacity="0.04"/><rect x="2727.2" y="1253.3" width="610.8" height="2.1" fill="#dfeaf8" opacity="0.05"/><rect x="614.5" y="1351.8" width="1024.9" height="1.2" fill="#dfeaf8" opacity="0.05"/><rect x="2890.2" y="1345.4" width="834.5" height="1.3" fill="#dfeaf8" opacity="0.09"/><rect x="698.5" y="1169.3" width="1339.6" height="1.8" fill="#dfeaf8" opacity="0.08"/><rect x="1083.3" y="1386.2" width="1332.5" height="1.4" fill="#dfeaf8" opacity="0.05"/><rect x="2800.6" y="1356" width="763.5" height="1.5" fill="#dfeaf8" opacity="0.06"/><rect x="1407.7" y="1258.3" width="1232.8" height="1.4" fill="#dfeaf8" opacity="0.09"/><rect x="3032" y="1285" width="1101.8" height="1.5" fill="#dfeaf8" opacity="0.04"/><rect x="33.4" y="1185.1" width="979.3" height="1.6" fill="#dfeaf8" opacity="0.06"/><rect x="3019.9" y="1277" width="1110.7" height="1.7" fill="#dfeaf8" opacity="0.08"/><rect x="2996.4" y="1204.5" width="1037.2" height="1.6" fill="#dfeaf8" opacity="0.04"/><rect x="2565.5" y="1387.7" width="395.4" height="1" fill="#dfeaf8" opacity="0.08"/><rect x="431.5" y="1330.5" width="818.8" height="1.7" fill="#dfeaf8" opacity="0.08"/><rect x="582.3" y="1342.8" width="565.3" height="1.7" fill="#dfeaf8" opacity="0.03"/><path d="M300,1444L420,1352L395,1290L505,1224L492,1186" fill="none" stroke="#cfe0f2" stroke-width="1.3" opacity="0.14"/><path d="M505,1224L628,1214L700,1236" fill="none" stroke="#cfe0f2" stroke-width="1.3" opacity="0.14"/><path d="M2160,1444L2266,1372L2258,1300L2380,1252L2372,1206" fill="none" stroke="#cfe0f2" stroke-width="1.3" opacity="0.14"/><path d="M3020,1444L2930,1380L2952,1330L2872,1282" fill="none" stroke="#cfe0f2" stroke-width="1.3" opacity="0.14"/><mask id="hexim"><rect width="3440" height="1440" fill="black"/><circle cx="2620" cy="1300" r="620" fill="url(#heximg)"/></mask><rect width="3440" height="1440" fill="url(#hexi)" opacity="0.05" mask="url(#hexim)"/><circle cx="1096.9" cy="1416.4" r="1" fill="none" stroke="#cfe0f2" stroke-width="0.7" opacity="0.12"/><circle cx="1107.2" cy="1398" r="1.8" fill="none" stroke="#cfe0f2" stroke-width="0.7" opacity="0.11"/><circle cx="1051.7" cy="1264.3" r="2.3" fill="none" stroke="#cfe0f2" stroke-width="0.7" opacity="0.10"/><circle cx="1121.1" cy="1321" r="1.6" fill="none" stroke="#cfe0f2" stroke-width="0.7" opacity="0.07"/><circle cx="502.3" cy="1267" r="1.3" fill="none" stroke="#cfe0f2" stroke-width="0.7" opacity="0.10"/><circle cx="1027.7" cy="1391.4" r="1.6" fill="none" stroke="#cfe0f2" stroke-width="0.7" opacity="0.09"/><circle cx="846.5" cy="1339.6" r="2.5" fill="none" stroke="#cfe0f2" stroke-width="0.7" opacity="0.12"/><circle cx="1442.8" cy="1312.8" r="2.2" fill="none" stroke="#cfe0f2" stroke-width="0.7" opacity="0.10"/><circle cx="733" cy="1278.1" r="1.7" fill="none" stroke="#cfe0f2" stroke-width="0.7" opacity="0.11"/><circle cx="1044.9" cy="1271.7" r="1.9" fill="none" stroke="#cfe0f2" stroke-width="0.7" opacity="0.10"/><circle cx="1393.9" cy="1405.6" r="0.9" fill="none" stroke="#cfe0f2" stroke-width="0.7" opacity="0.06"/><circle cx="979.4" cy="1240.8" r="2.6" fill="none" stroke="#cfe0f2" stroke-width="0.7" opacity="0.12"/><circle cx="978.6" cy="1357" r="1.5" fill="none" stroke="#cfe0f2" stroke-width="0.7" opacity="0.07"/><circle cx="1094.7" cy="1286.1" r="2.2" fill="none" stroke="#cfe0f2" stroke-width="0.7" opacity="0.11"/><circle cx="1030.7" cy="1387" r="1.6" fill="none" stroke="#cfe0f2" stroke-width="0.7" opacity="0.08"/><circle cx="1100.8" cy="1417.4" r="2" fill="none" stroke="#cfe0f2" stroke-width="0.7" opacity="0.09"/><circle cx="978.1" cy="1317.3" r="1.2" fill="none" stroke="#cfe0f2" stroke-width="0.7" opacity="0.12"/><circle cx="1232.4" cy="1331.7" r="2.6" fill="none" stroke="#cfe0f2" stroke-width="0.7" opacity="0.10"/><circle cx="912" cy="1358.4" r="1.4" fill="none" stroke="#cfe0f2" stroke-width="0.7" opacity="0.06"/><circle cx="782.8" cy="1372.9" r="1" fill="none" stroke="#cfe0f2" stroke-width="0.7" opacity="0.11"/><circle cx="1242.3" cy="1406.4" r="1.3" fill="none" stroke="#cfe0f2" stroke-width="0.7" opacity="0.10"/><circle cx="1397.9" cy="1289.6" r="2.5" fill="none" stroke="#cfe0f2" stroke-width="0.7" opacity="0.11"/><circle cx="514.6" cy="1410.8" r="2.1" fill="none" stroke="#cfe0f2" stroke-width="0.7" opacity="0.10"/><circle cx="570.1" cy="1388.6" r="1.6" fill="none" stroke="#cfe0f2" stroke-width="0.7" opacity="0.13"/><circle cx="1377.6" cy="1383" r="2.1" fill="none" stroke="#cfe0f2" stroke-width="0.7" opacity="0.06"/><circle cx="990.2" cy="1357.6" r="2.3" fill="none" stroke="#cfe0f2" stroke-width="0.7" opacity="0.10"/><text x="640.5" y="1319" font-family="DejaVu Sans Mono,monospace" font-size="12" fill="#cfe0f2" opacity="0.05">0</text><text x="1187.1" y="1266.2" font-family="DejaVu Sans Mono,monospace" font-size="12" fill="#cfe0f2" opacity="0.06">0</text><text x="579.6" y="1361.5" font-family="DejaVu Sans Mono,monospace" font-size="12" fill="#cfe0f2" opacity="0.09">0</text><text x="1049.5" y="1280.4" font-family="DejaVu Sans Mono,monospace" font-size="12" fill="#cfe0f2" opacity="0.08">0</text><text x="735.4" y="1405.9" font-family="DejaVu Sans Mono,monospace" font-size="12" fill="#cfe0f2" opacity="0.09">1</text><text x="935.7" y="1295.4" font-family="DejaVu Sans Mono,monospace" font-size="12" fill="#cfe0f2" opacity="0.05">1</text><text x="1419.5" y="1401.4" font-family="DejaVu Sans Mono,monospace" font-size="12" fill="#cfe0f2" opacity="0.08">0</text><text x="608.2" y="1266" font-family="DejaVu Sans Mono,monospace" font-size="12" fill="#cfe0f2" opacity="0.10">1</text><text x="1114.1" y="1343" font-family="DejaVu Sans Mono,monospace" font-size="12" fill="#cfe0f2" opacity="0.09">0</text><text x="1026.7" y="1286.5" font-family="DejaVu Sans Mono,monospace" font-size="12" fill="#cfe0f2" opacity="0.09">0</text><text x="1232.1" y="1304.5" font-family="DejaVu Sans Mono,monospace" font-size="12" fill="#cfe0f2" opacity="0.08">1</text><text x="1190.9" y="1321.1" font-family="DejaVu Sans Mono,monospace" font-size="12" fill="#cfe0f2" opacity="0.09">1</text><text x="780.5" y="1293.9" font-family="DejaVu Sans Mono,monospace" font-size="12" fill="#cfe0f2" opacity="0.08">0</text><text x="1040.9" y="1274.3" font-family="DejaVu Sans Mono,monospace" font-size="12" fill="#cfe0f2" opacity="0.05">0</text><g transform="translate(890,1330) skewX(-6)" filter="url(#soft1)"><text x="1.8" y="1.8" font-family="DejaVu Sans,sans-serif" font-size="104" font-weight="200" letter-spacing="26" fill="none" stroke="#060d1c" stroke-width="1.6" opacity="0.20">Snow</text><text font-family="DejaVu Sans,sans-serif" font-size="104" font-weight="200" letter-spacing="26" fill="none" stroke="#dfeaf8" stroke-width="1.4" opacity="0.10">Snow</text></g></g><rect width="3440" height="1440" fill="url(#vig)" opacity="0.34" pointer-events="none"/></svg>