<svg xmlns="http://www.w3.org/2000/svg" width="3440" height="1440" viewBox="0 0 3440 1440"><title>Snow — Blueprint Edition</title><defs><filter id="soft1" x="-40%" y="-40%" width="180%" height="180%"><feGaussianBlur stdDeviation="1.2"/></filter><filter id="soft2" x="-80%" y="-80%" width="260%" height="260%"><feGaussianBlur stdDeviation="3"/></filter><filter id="soft3" x="-80%" y="-80%" width="260%" height="260%"><feGaussianBlur stdDeviation="4.5"/></filter><filter id="soft6" x="-60%" y="-60%" width="220%" height="220%"><feGaussianBlur stdDeviation="8"/></filter><linearGradient id="bp" x1="0" y1="0" x2="0" y2="1440" gradientUnits="userSpaceOnUse"><stop offset="0" stop-color="#2b4d70" stop-opacity="1"/><stop offset="1" stop-color="#1d3854" stop-opacity="1"/></linearGradient><radialGradient id="vig"><stop offset="0.6" stop-color="#000000" stop-opacity="0.0"/><stop offset="1" stop-color="#101f31" stop-opacity="1"/></radialGradient><pattern id="hexb" width="156" height="90.1" patternUnits="userSpaceOnUse"><path d="M52,0L26,45L-26,45L-52,0L-26,-45L26,-45Z" transform="translate(0,0)" fill="none" stroke="#cfe3f5" stroke-width="1.0"/><path d="M52,0L26,45L-26,45L-52,0L-26,-45L26,-45Z" transform="translate(156,0)" fill="none" stroke="#cfe3f5" stroke-width="1.0"/><path d="M52,0L26,45L-26,45L-52,0L-26,-45L26,-45Z" transform="translate(0,90.1)" fill="none" stroke="#cfe3f5" stroke-width="1.0"/><path d="M52,0L26,45L-26,45L-52,0L-26,-45L26,-45Z" transform="translate(156,90.1)" fill="none" stroke="#cfe3f5" stroke-width="1.0"/><path d="M52,0L26,45L-26,45L-52,0L-26,-45L26,-45Z" transform="translate(78,45)" fill="none" stroke="#cfe3f5" stroke-width="1.0"/></pattern><radialGradient id="hexbmg"><stop offset="0" stop-color="#ffffff" stop-opacity="1"/><stop offset="1" stop-color="#ffffff" stop-opacity="0"/></radialGradient><clipPath id="clipMain"><path d="M-4,1010L0,1010L21.2,1003.3L42.5,998L63.8,989.7L85,984.2L106.2,975.3L127.5,969.7L148.8,964.1L170,962L193.8,967.7L217.5,970.4L241.2,973.7L265,973.9L288.8,978.2L312.5,980.5L336.2,986.1L360,995L383.1,984.6L406.2,972.8L429.4,957.1L452.5,944.4L475.6,937.6L498.8,927.6L521.9,916.9L545,905L570.6,911.1L596.2,914.9L621.9,923L647.5,930.1L673.1,933.3L698.8,937.2L724.4,940.2L750,940L776.2,926.9L802.5,909.4L828.8,890.7L855,874.5L881.2,855.3L907.5,836.7L933.8,822.4L960,806L983.8,813.6L1007.5,819.6L1031.2,824.5L1055,830.3L1078.8,832.9L1102.5,835.9L1126.2,844L1150,848L1174.4,823.7L1198.8,801.3L1223.1,773.1L1247.5,747.4L1271.9,723.5L1296.2,697.9L1320.6,670.5L1345,645L1366.9,655.6L1388.8,663.1L1410.6,667.7L1432.5,673.7L1454.4,681.7L1476.2,686.3L1498.1,695.7L1520,706L1542.5,690.3L1565,671.4L1587.5,656.6L1610,639.8L1632.5,622.7L1655,603.8L1677.5,583.8L1700,566L1728.8,553.2L1757.5,543.9L1786.2,529.3L1815,519.6L1843.8,503.9L1872.5,491.5L1901.2,481.6L1930,470L1954.5,456.8L1979,447.4L2003.5,431.5L2028,418L2052.5,404.3L2077,390L2101.5,371.5L2126,356L2144,369.3L2162,383.8L2180,398L2198,414.1L2216,427L2234,438.8L2252,452.1L2270,468L2287.5,466.7L2305,462.2L2322.5,458.5L2340,454.3L2357.5,449.1L2375,442.6L2392.5,437.4L2410,432L2431.2,448.6L2452.5,465.3L2473.8,482.5L2495,496.1L2516.2,514L2537.5,529L2558.8,546.7L2580,562L2603.8,553.3L2627.5,548.7L2651.2,543.3L2675,537.1L2698.8,533.7L2722.5,526.5L2746.2,525.8L2770,524L2793.8,536.5L2817.5,548.9L2841.2,565.1L2865,580L2888.8,595.5L2912.5,613.7L2936.2,631.8L2960,648L2982.5,647.7L3005,645.2L3027.5,640.2L3050,638.6L3072.5,634.2L3095,629.7L3117.5,626.2L3140,622L3160,633.9L3180,646.9L3200,658.2L3220,668.2L3240,683.8L3260,696.4L3280,711.7L3300,724L3317.5,721.1L3335,719.4L3352.5,713.6L3370,709.9L3387.5,707.1L3405,702L3422.5,697.3L3440,692L3444,692L3444,1444L-4,1444Z"/></clipPath><clipPath id="clipMid"><path d="M-4,942L0,942L28.8,933.9L57.5,925.2L86.2,920L115,913.2L143.8,903.7L172.5,897.8L201.2,887.8L230,880L260,881.3L290,884.4L320,884.4L350,888L380,891.7L410,897.7L440,903.2L470,912L501.2,897.2L532.5,884.3L563.8,870.3L595,855.1L626.2,843.6L657.5,833.2L688.8,819.1L720,806L752.5,806.7L785,810L817.5,815.4L850,823L882.5,833.1L915,839.3L947.5,845.3L980,850L1012.5,841.2L1045,831.5L1077.5,818.9L1110,809.3L1142.5,797.3L1175,783.2L1207.5,770.1L1240,760L1275,766.1L1310,773.4L1345,785.8L1380,793.5L1415,803L1450,811.2L1485,815.9L1520,820L1555,807L1590,792.2L1625,781.6L1660,767.7L1695,750.1L1730,729.9L1765,713.6L1800,700L1832.5,701.7L1865,707.6L1897.5,714.2L1930,722.5L1962.5,732.4L1995,744.4L2027.5,750.9L2060,760L2096.2,753.6L2132.5,742.8L2168.8,735L2205,723.4L2241.2,715.7L2277.5,709.8L2313.8,700.7L2350,690L2386.2,696L2422.5,703.1L2458.8,709.4L2495,711.5L2531.2,721.6L2567.5,732.1L2603.8,740.9L2640,752L2676.2,745.2L2712.5,740.9L2748.8,730.9L2785,720.3L2821.2,713.4L2857.5,708.9L2893.8,704.9L2930,700L2963.8,709.9L2997.5,716L3031.2,723.1L3065,731.1L3098.8,739.1L3132.5,749.7L3166.2,758.2L3200,762L3230,756.5L3260,751L3290,742.8L3320,738L3350,735.7L3380,737.1L3410,731.9L3440,730L3444,730L3444,1444L-4,1444Z"/></clipPath><clipPath id="clipFar"><path d="M-4,880L0,880L32.5,869.3L65,861.5L97.5,850.8L130,839.3L162.5,833.3L195,825.2L227.5,820L260,812L292.5,815.2L325,819.6L357.5,825.8L390,831.9L422.5,837.4L455,841.5L487.5,842.5L520,846L555,836.7L590,824.7L625,812.7L660,798.4L695,787.1L730,779.2L765,771L800,762L832.5,764.7L865,768.3L897.5,773.2L930,780.5L962.5,785.8L995,790.3L1027.5,796.9L1060,800L1093.8,793.6L1127.5,786.8L1161.2,778.7L1195,773.6L1228.8,766.7L1262.5,759.9L1296.2,752L1330,742L1366.2,749.9L1402.5,754.2L1438.8,760.3L1475,764.8L1511.2,766.2L1547.5,771.4L1583.8,776.6L1620,778L1655,772L1690,765.2L1725,756.6L1760,751.3L1795,743L1830,737.7L1865,730.2L1900,726L1935,730.1L1970,732.9L2005,738.6L2040,747L2075,751.7L2110,754L2145,759.5L2180,768L2220,764L2260,759.7L2300,751.3L2340,743.4L2380,741L2420,742.7L2460,737.1L2500,736L2540,742.1L2580,744.6L2620,752.8L2660,756.8L2700,762.6L2740,771.9L2780,777L2820,780L2847.5,776.4L2875,769.9L2902.5,765.9L2930,759.4L2957.5,755L2985,748.3L3012.5,744.6L3040,742L3067.5,735.6L3095,727.9L3122.5,718.6L3150,709.3L3177.5,700.6L3205,689.2L3232.5,679.2L3260,668L3282.5,674.8L3305,679.9L3327.5,684.6L3350,687.5L3372.5,692.3L3395,697.6L3417.5,702.4L3440,706L3444,706L3444,1444L-4,1444Z"/></clipPath><clipPath id="clipLake"><rect x="0" y="1150" width="3440" height="290"/></clipPath></defs><rect width="3440" height="1440" fill="url(#bp)"/><g stroke="#e8f2fb" stroke-width="1" opacity="0.035" fill="none"><path d="M0,0V1440" /><path d="M40,0V1440" /><path d="M80,0V1440" /><path d="M120,0V1440" /><path d="M160,0V1440" /><path d="M200,0V1440" /><path d="M240,0V1440" /><path d="M280,0V1440" /><path d="M320,0V1440" /><path d="M360,0V1440" /><path d="M400,0V1440" /><path d="M440,0V1440" /><path d="M480,0V1440" /><path d="M520,0V1440" /><path d="M560,0V1440" /><path d="M600,0V1440" /><path d="M640,0V1440" /><path d="M680,0V1440" /><path d="M720,0V1440" /><path d="M760,0V1440" /><path d="M800,0V1440" /><path d="M840,0V1440" /><path d="M880,0V1440" /><path d="M920,0V1440" /><path d="M960,0V1440" /><path d="M1000,0V1440" /><path d="M1040,0V1440" /><path d="M1080,0V1440" /><path d="M1120,0V1440" /><path d="M1160,0V1440" /><path d="M1200,0V1440" /><path d="M1240,0V1440" /><path d="M1280,0V1440" /><path d="M1320,0V1440" /><path d="M1360,0V1440" /><path d="M1400,0V1440" /><path d="M1440,0V1440" /><path d="M1480,0V1440" /><path d="M1520,0V1440" /><path d="M1560,0V1440" /><path d="M1600,0V1440" /><path d="M1640,0V1440" /><path d="M1680,0V1440" /><path d="M1720,0V1440" /><path d="M1760,0V1440" /><path d="M1800,0V1440" /><path d="M1840,0V1440" /><path d="M1880,0V1440" /><path d="M1920,0V1440" /><path d="M1960,0V1440" /><path d="M2000,0V1440" /><path d="M2040,0V1440" /><path d="M2080,0V1440" /><path d="M2120,0V1440" /><path d="M2160,0V1440" /><path d="M2200,0V1440" /><path d="M2240,0V1440" /><path d="M2280,0V1440" /><path d="M2320,0V1440" /><path d="M2360,0V1440" /><path d="M2400,0V1440" /><path d="M2440,0V1440" /><path d="M2480,0V1440" /><path d="M2520,0V1440" /><path d="M2560,0V1440" /><path d="M2600,0V1440" /><path d="M2640,0V1440" /><path d="M2680,0V1440" /><path d="M2720,0V1440" /><path d="M2760,0V1440" /><path d="M2800,0V1440" /><path d="M2840,0V1440" /><path d="M2880,0V1440" /><path d="M2920,0V1440" /><path d="M2960,0V1440" /><path d="M3000,0V1440" /><path d="M3040,0V1440" /><path d="M3080,0V1440" /><path d="M3120,0V1440" /><path d="M3160,0V1440" /><path d="M3200,0V1440" /><path d="M3240,0V1440" /><path d="M3280,0V1440" /><path d="M3320,0V1440" /><path d="M3360,0V1440" /><path d="M3400,0V1440" /><path d="M3440,0V1440" /><path d="M0,0H3440" /><path d="M0,40H3440" /><path d="M0,80H3440" /><path d="M0,120H3440" /><path d="M0,160H3440" /><path d="M0,200H3440" /><path d="M0,240H3440" /><path d="M0,280H3440" /><path d="M0,320H3440" /><path d="M0,360H3440" /><path d="M0,400H3440" /><path d="M0,440H3440" /><path d="M0,480H3440" /><path d="M0,520H3440" /><path d="M0,560H3440" /><path d="M0,600H3440" /><path d="M0,640H3440" /><path d="M0,680H3440" /><path d="M0,720H3440" /><path d="M0,760H3440" /><path d="M0,800H3440" /><path d="M0,840H3440" /><path d="M0,880H3440" /><path d="M0,920H3440" /><path d="M0,960H3440" /><path d="M0,1000H3440" /><path d="M0,1040H3440" /><path d="M0,1080H3440" /><path d="M0,1120H3440" /><path d="M0,1160H3440" /><path d="M0,1200H3440" /><path d="M0,1240H3440" /><path d="M0,1280H3440" /><path d="M0,1320H3440" /><path d="M0,1360H3440" /><path d="M0,1400H3440" /><path d="M0,1440H3440" /></g><g stroke="#e8f2fb" stroke-width="1" opacity="0.06" fill="none"><path d="M0,0V1440" /><path d="M200,0V1440" /><path d="M400,0V1440" /><path d="M600,0V1440" /><path d="M800,0V1440" /><path d="M1000,0V1440" /><path d="M1200,0V1440" /><path d="M1400,0V1440" /><path d="M1600,0V1440" /><path d="M1800,0V1440" /><path d="M2000,0V1440" /><path d="M2200,0V1440" /><path d="M2400,0V1440" /><path d="M2600,0V1440" /><path d="M2800,0V1440" /><path d="M3000,0V1440" /><path d="M3200,0V1440" /><path d="M3400,0V1440" /><path d="M0,0H3440" /><path d="M0,200H3440" /><path d="M0,400H3440" /><path d="M0,600H3440" /><path d="M0,800H3440" /><path d="M0,1000H3440" /><path d="M0,1200H3440" /><path d="M0,1400H3440" /></g><mask id="hexbm"><rect width="3440" height="1440" fill="black"/><circle cx="2860" cy="300" r="560" fill="url(#hexbmg)"/></mask><rect width="3440" height="1440" fill="url(#hexb)" opacity="0.05" mask="url(#hexbm)"/><text x="3252" y="586" font-family="DejaVu Sans Mono,monospace" font-size="18" fill="#cfe3f5" opacity="0.4">R = 52.0</text><path d="M-4,880L0,880L32.5,869.3L65,861.5L97.5,850.8L130,839.3L162.5,833.3L195,825.2L227.5,820L260,812L292.5,815.2L325,819.6L357.5,825.8L390,831.9L422.5,837.4L455,841.5L487.5,842.5L520,846L555,836.7L590,824.7L625,812.7L660,798.4L695,787.1L730,779.2L765,771L800,762L832.5,764.7L865,768.3L897.5,773.2L930,780.5L962.5,785.8L995,790.3L1027.5,796.9L1060,800L1093.8,793.6L1127.5,786.8L1161.2,778.7L1195,773.6L1228.8,766.7L1262.5,759.9L1296.2,752L1330,742L1366.2,749.9L1402.5,754.2L1438.8,760.3L1475,764.8L1511.2,766.2L1547.5,771.4L1583.8,776.6L1620,778L1655,772L1690,765.2L1725,756.6L1760,751.3L1795,743L1830,737.7L1865,730.2L1900,726L1935,730.1L1970,732.9L2005,738.6L2040,747L2075,751.7L2110,754L2145,759.5L2180,768L2220,764L2260,759.7L2300,751.3L2340,743.4L2380,741L2420,742.7L2460,737.1L2500,736L2540,742.1L2580,744.6L2620,752.8L2660,756.8L2700,762.6L2740,771.9L2780,777L2820,780L2847.5,776.4L2875,769.9L2902.5,765.9L2930,759.4L2957.5,755L2985,748.3L3012.5,744.6L3040,742L3067.5,735.6L3095,727.9L3122.5,718.6L3150,709.3L3177.5,700.6L3205,689.2L3232.5,679.2L3260,668L3282.5,674.8L3305,679.9L3327.5,684.6L3350,687.5L3372.5,692.3L3395,697.6L3417.5,702.4L3440,706L3444,706L3444,1444L-4,1444Z" fill="url(#bp)"/><path d="M0,880L32.5,869.3L65,861.5L97.5,850.8L130,839.3L162.5,833.3L195,825.2L227.5,820L260,812L292.5,815.2L325,819.6L357.5,825.8L390,831.9L422.5,837.4L455,841.5L487.5,842.5L520,846L555,836.7L590,824.7L625,812.7L660,798.4L695,787.1L730,779.2L765,771L800,762L832.5,764.7L865,768.3L897.5,773.2L930,780.5L962.5,785.8L995,790.3L1027.5,796.9L1060,800L1093.8,793.6L1127.5,786.8L1161.2,778.7L1195,773.6L1228.8,766.7L1262.5,759.9L1296.2,752L1330,742L1366.2,749.9L1402.5,754.2L1438.8,760.3L1475,764.8L1511.2,766.2L1547.5,771.4L1583.8,776.6L1620,778L1655,772L1690,765.2L1725,756.6L1760,751.3L1795,743L1830,737.7L1865,730.2L1900,726L1935,730.1L1970,732.9L2005,738.6L2040,747L2075,751.7L2110,754L2145,759.5L2180,768L2220,764L2260,759.7L2300,751.3L2340,743.4L2380,741L2420,742.7L2460,737.1L2500,736L2540,742.1L2580,744.6L2620,752.8L2660,756.8L2700,762.6L2740,771.9L2780,777L2820,780L2847.5,776.4L2875,769.9L2902.5,765.9L2930,759.4L2957.5,755L2985,748.3L3012.5,744.6L3040,742L3067.5,735.6L3095,727.9L3122.5,718.6L3150,709.3L3177.5,700.6L3205,689.2L3232.5,679.2L3260,668L3282.5,674.8L3305,679.9L3327.5,684.6L3350,687.5L3372.5,692.3L3395,697.6L3417.5,702.4L3440,706" fill="none" stroke="#e8f2fb" stroke-width="1.4" opacity="0.30"/><path d="M-4,942L0,942L28.8,933.9L57.5,925.2L86.2,920L115,913.2L143.8,903.7L172.5,897.8L201.2,887.8L230,880L260,881.3L290,884.4L320,884.4L350,888L380,891.7L410,897.7L440,903.2L470,912L501.2,897.2L532.5,884.3L563.8,870.3L595,855.1L626.2,843.6L657.5,833.2L688.8,819.1L720,806L752.5,806.7L785,810L817.5,815.4L850,823L882.5,833.1L915,839.3L947.5,845.3L980,850L1012.5,841.2L1045,831.5L1077.5,818.9L1110,809.3L1142.5,797.3L1175,783.2L1207.5,770.1L1240,760L1275,766.1L1310,773.4L1345,785.8L1380,793.5L1415,803L1450,811.2L1485,815.9L1520,820L1555,807L1590,792.2L1625,781.6L1660,767.7L1695,750.1L1730,729.9L1765,713.6L1800,700L1832.5,701.7L1865,707.6L1897.5,714.2L1930,722.5L1962.5,732.4L1995,744.4L2027.5,750.9L2060,760L2096.2,753.6L2132.5,742.8L2168.8,735L2205,723.4L2241.2,715.7L2277.5,709.8L2313.8,700.7L2350,690L2386.2,696L2422.5,703.1L2458.8,709.4L2495,711.5L2531.2,721.6L2567.5,732.1L2603.8,740.9L2640,752L2676.2,745.2L2712.5,740.9L2748.8,730.9L2785,720.3L2821.2,713.4L2857.5,708.9L2893.8,704.9L2930,700L2963.8,709.9L2997.5,716L3031.2,723.1L3065,731.1L3098.8,739.1L3132.5,749.7L3166.2,758.2L3200,762L3230,756.5L3260,751L3290,742.8L3320,738L3350,735.7L3380,737.1L3410,731.9L3440,730L3444,730L3444,1444L-4,1444Z" fill="url(#bp)"/><path d="M0,942L28.8,933.9L57.5,925.2L86.2,920L115,913.2L143.8,903.7L172.5,897.8L201.2,887.8L230,880L260,881.3L290,884.4L320,884.4L350,888L380,891.7L410,897.7L440,903.2L470,912L501.2,897.2L532.5,884.3L563.8,870.3L595,855.1L626.2,843.6L657.5,833.2L688.8,819.1L720,806L752.5,806.7L785,810L817.5,815.4L850,823L882.5,833.1L915,839.3L947.5,845.3L980,850L1012.5,841.2L1045,831.5L1077.5,818.9L1110,809.3L1142.5,797.3L1175,783.2L1207.5,770.1L1240,760L1275,766.1L1310,773.4L1345,785.8L1380,793.5L1415,803L1450,811.2L1485,815.9L1520,820L1555,807L1590,792.2L1625,781.6L1660,767.7L1695,750.1L1730,729.9L1765,713.6L1800,700L1832.5,701.7L1865,707.6L1897.5,714.2L1930,722.5L1962.5,732.4L1995,744.4L2027.5,750.9L2060,760L2096.2,753.6L2132.5,742.8L2168.8,735L2205,723.4L2241.2,715.7L2277.5,709.8L2313.8,700.7L2350,690L2386.2,696L2422.5,703.1L2458.8,709.4L2495,711.5L2531.2,721.6L2567.5,732.1L2603.8,740.9L2640,752L2676.2,745.2L2712.5,740.9L2748.8,730.9L2785,720.3L2821.2,713.4L2857.5,708.9L2893.8,704.9L2930,700L2963.8,709.9L2997.5,716L3031.2,723.1L3065,731.1L3098.8,739.1L3132.5,749.7L3166.2,758.2L3200,762L3230,756.5L3260,751L3290,742.8L3320,738L3350,735.7L3380,737.1L3410,731.9L3440,730" fill="none" stroke="#e8f2fb" stroke-width="1.6" opacity="0.45"/><g clip-path="url(#clipMid)" stroke="#e8f2fb" stroke-width="1" opacity="0.05" fill="none"><path d="M1760,720L1918,720"/><path d="M2234,720L2518,720"/><path d="M2798,720L3010,720"/><path d="M1214,772L1300,772"/><path d="M1658,772L3432,772"/><path d="M686,824L850,824"/><path d="M1076,824L3432,824"/><path d="M560,876L3432,876"/><path d="M62,928L3432,928"/><path d="M8,980L3432,980"/><path d="M8,1032L3432,1032"/><path d="M8,1084L3432,1084"/><path d="M8,1136L3432,1136"/></g><path d="M-4,1010L0,1010L21.2,1003.3L42.5,998L63.8,989.7L85,984.2L106.2,975.3L127.5,969.7L148.8,964.1L170,962L193.8,967.7L217.5,970.4L241.2,973.7L265,973.9L288.8,978.2L312.5,980.5L336.2,986.1L360,995L383.1,984.6L406.2,972.8L429.4,957.1L452.5,944.4L475.6,937.6L498.8,927.6L521.9,916.9L545,905L570.6,911.1L596.2,914.9L621.9,923L647.5,930.1L673.1,933.3L698.8,937.2L724.4,940.2L750,940L776.2,926.9L802.5,909.4L828.8,890.7L855,874.5L881.2,855.3L907.5,836.7L933.8,822.4L960,806L983.8,813.6L1007.5,819.6L1031.2,824.5L1055,830.3L1078.8,832.9L1102.5,835.9L1126.2,844L1150,848L1174.4,823.7L1198.8,801.3L1223.1,773.1L1247.5,747.4L1271.9,723.5L1296.2,697.9L1320.6,670.5L1345,645L1366.9,655.6L1388.8,663.1L1410.6,667.7L1432.5,673.7L1454.4,681.7L1476.2,686.3L1498.1,695.7L1520,706L1542.5,690.3L1565,671.4L1587.5,656.6L1610,639.8L1632.5,622.7L1655,603.8L1677.5,583.8L1700,566L1728.8,553.2L1757.5,543.9L1786.2,529.3L1815,519.6L1843.8,503.9L1872.5,491.5L1901.2,481.6L1930,470L1954.5,456.8L1979,447.4L2003.5,431.5L2028,418L2052.5,404.3L2077,390L2101.5,371.5L2126,356L2144,369.3L2162,383.8L2180,398L2198,414.1L2216,427L2234,438.8L2252,452.1L2270,468L2287.5,466.7L2305,462.2L2322.5,458.5L2340,454.3L2357.5,449.1L2375,442.6L2392.5,437.4L2410,432L2431.2,448.6L2452.5,465.3L2473.8,482.5L2495,496.1L2516.2,514L2537.5,529L2558.8,546.7L2580,562L2603.8,553.3L2627.5,548.7L2651.2,543.3L2675,537.1L2698.8,533.7L2722.5,526.5L2746.2,525.8L2770,524L2793.8,536.5L2817.5,548.9L2841.2,565.1L2865,580L2888.8,595.5L2912.5,613.7L2936.2,631.8L2960,648L2982.5,647.7L3005,645.2L3027.5,640.2L3050,638.6L3072.5,634.2L3095,629.7L3117.5,626.2L3140,622L3160,633.9L3180,646.9L3200,658.2L3220,668.2L3240,683.8L3260,696.4L3280,711.7L3300,724L3317.5,721.1L3335,719.4L3352.5,713.6L3370,709.9L3387.5,707.1L3405,702L3422.5,697.3L3440,692L3444,692L3444,1444L-4,1444Z" fill="url(#bp)"/><path d="M-4,1010L0,1010L21.2,1003.3L42.5,998L63.8,989.7L85,984.2L106.2,975.3L127.5,969.7L148.8,964.1L170,962L193.8,967.7L217.5,970.4L241.2,973.7L265,973.9L288.8,978.2L312.5,980.5L336.2,986.1L360,995L383.1,984.6L406.2,972.8L429.4,957.1L452.5,944.4L475.6,937.6L498.8,927.6L521.9,916.9L545,905L570.6,911.1L596.2,914.9L621.9,923L647.5,930.1L673.1,933.3L698.8,937.2L724.4,940.2L750,940L776.2,926.9L802.5,909.4L828.8,890.7L855,874.5L881.2,855.3L907.5,836.7L933.8,822.4L960,806L983.8,813.6L1007.5,819.6L1031.2,824.5L1055,830.3L1078.8,832.9L1102.5,835.9L1126.2,844L1150,848L1174.4,823.7L1198.8,801.3L1223.1,773.1L1247.5,747.4L1271.9,723.5L1296.2,697.9L1320.6,670.5L1345,645L1366.9,655.6L1388.8,663.1L1410.6,667.7L1432.5,673.7L1454.4,681.7L1476.2,686.3L1498.1,695.7L1520,706L1542.5,690.3L1565,671.4L1587.5,656.6L1610,639.8L1632.5,622.7L1655,603.8L1677.5,583.8L1700,566L1728.8,553.2L1757.5,543.9L1786.2,529.3L1815,519.6L1843.8,503.9L1872.5,491.5L1901.2,481.6L1930,470L1954.5,456.8L1979,447.4L2003.5,431.5L2028,418L2052.5,404.3L2077,390L2101.5,371.5L2126,356L2144,369.3L2162,383.8L2180,398L2198,414.1L2216,427L2234,438.8L2252,452.1L2270,468L2287.5,466.7L2305,462.2L2322.5,458.5L2340,454.3L2357.5,449.1L2375,442.6L2392.5,437.4L2410,432L2431.2,448.6L2452.5,465.3L2473.8,482.5L2495,496.1L2516.2,514L2537.5,529L2558.8,546.7L2580,562L2603.8,553.3L2627.5,548.7L2651.2,543.3L2675,537.1L2698.8,533.7L2722.5,526.5L2746.2,525.8L2770,524L2793.8,536.5L2817.5,548.9L2841.2,565.1L2865,580L2888.8,595.5L2912.5,613.7L2936.2,631.8L2960,648L2982.5,647.7L3005,645.2L3027.5,640.2L3050,638.6L3072.5,634.2L3095,629.7L3117.5,626.2L3140,622L3160,633.9L3180,646.9L3200,658.2L3220,668.2L3240,683.8L3260,696.4L3280,711.7L3300,724L3317.5,721.1L3335,719.4L3352.5,713.6L3370,709.9L3387.5,707.1L3405,702L3422.5,697.3L3440,692L3444,692L3444,1444L-4,1444Z" fill="#ffffff" opacity="0.02"/><g clip-path="url(#clipMain)" stroke="#e8f2fb" stroke-width="1" opacity="0.09" fill="none"><path d="M2018,430L2218,430"/><path d="M1910,482L2470,482"/><path d="M1790,534L2536,534"/><path d="M2708,534L2782,534"/><path d="M1688,586L2872,586"/><path d="M1622,638L2938,638"/><path d="M3062,638L3160,638"/><path d="M1316,690L1480,690"/><path d="M1556,690L3244,690"/><path d="M1262,742L3432,742"/><path d="M1214,794L3432,794"/><path d="M908,846L1132,846"/><path d="M1166,846L3432,846"/><path d="M830,898L3432,898"/><path d="M452,950L3432,950"/><path d="M38,1002L3432,1002"/><path d="M8,1054L3432,1054"/><path d="M8,1106L3432,1106"/></g><g clip-path="url(#clipMain)"><path d="M1895.9,477.1L1917.1,465.4L1938.4,456.3L1959.7,449L1981,440.4L1999.1,430.6L2017.2,423.6L2035.3,411.9L2053.5,401.9L2071.6,391.7L2089.7,381.2L2107.9,367.5L2126,356L2139.3,365.9L2152.6,376.5L2166,387.1L2179.3,399L2192.6,408.5L2205.9,417.2L2219.2,427.1L2232.6,438.9L2245.5,437.9L2258.5,434.6L2271.4,431.9L2284.4,428.7L2297.3,424.9L2310.3,420L2323.2,416.3L2336.2,412.2L2351.9,424.5L2367.6,436.9" fill="none" stroke="#e8f2fb" stroke-width="1" opacity="0.20"/><path d="M1970.5,437.8L1984.9,429.9L1999.2,423.8L2013.6,418.8L2028,413L2040.2,406.4L2052.5,401.7L2064.8,393.8L2077,387L2089.2,380.1L2101.5,373L2113.8,363.7L2126,356L2135,362.7L2144,369.9L2153,377L2162,385L2171,391.5L2180,397.4L2189,404.1L2198,412L2206.8,411.3L2215.5,409.1L2224.2,407.3L2233,405.1L2241.8,402.5L2250.5,399.3L2259.2,396.7L2268,394L2278.6,402.3L2289.2,410.6" fill="none" stroke="#e8f2fb" stroke-width="1" opacity="0.20"/><path d="M2038.9,401.8L2047,397.4L2055,393.9L2063.1,391.2L2071.1,387.9L2078,384.2L2084.8,381.6L2091.7,377.1L2098.6,373.3L2105.4,369.5L2112.3,365.5L2119.1,360.3L2126,356L2131,359.7L2136.1,363.8L2141.1,367.8L2146.2,372.3L2151.2,375.9L2156.2,379.2L2161.3,382.9L2166.3,387.4L2171.2,387L2176.1,385.7L2181,384.7L2185.9,383.5L2190.8,382.1L2195.7,380.2L2200.6,378.8L2205.5,377.3L2211.5,381.9L2217.4,386.6" fill="none" stroke="#e8f2fb" stroke-width="1" opacity="0.20"/><path d="M1165.5,786.3L1183.1,792.2L1200.7,795.2L1218.7,777.2L1236.8,760.7L1254.8,739.8L1272.8,720.8L1290.9,703.1L1308.9,684.1L1327,663.8L1345,645L1361.2,652.9L1377.4,658.4L1393.6,661.8L1409.8,666.2L1425.9,672.1L1442.1,675.6L1458.3,682.5L1474.5,690.1L1491.2,678.5L1507.8,664.5L1524.5,653.6" fill="none" stroke="#e8f2fb" stroke-width="1" opacity="0.20"/><path d="M1223.8,740.5L1235.6,744.5L1247.5,746.5L1259.7,734.3L1271.9,723.2L1284.1,709.1L1296.2,696.2L1308.4,684.2L1320.6,671.4L1332.8,657.7L1345,645L1355.9,650.3L1366.9,654.1L1377.8,656.4L1388.8,659.3L1399.7,663.3L1410.6,665.7L1421.6,670.3L1432.5,675.5L1443.8,667.6L1455,658.2L1466.2,650.8" fill="none" stroke="#e8f2fb" stroke-width="1" opacity="0.20"/><path d="M1277.1,698.5L1283.8,700.7L1290.4,701.8L1297.2,695L1304,688.8L1310.9,680.9L1317.7,673.7L1324.5,667L1331.3,659.8L1338.2,652.1L1345,645L1351.1,648L1357.2,650.1L1363.4,651.4L1369.5,653L1375.6,655.3L1381.8,656.6L1387.9,659.2L1394,662.1L1400.3,657.7L1406.6,652.4L1412.9,648.2" fill="none" stroke="#e8f2fb" stroke-width="1" opacity="0.20"/><path d="M2266.4,428.3L2279.8,437L2293.1,446.9L2306.4,458.6L2319.3,457.7L2332.3,454.3L2345.2,451.6L2358.2,448.5L2371.2,444.6L2384.1,439.8L2397.1,436L2410,432L2425.7,444.3L2441.4,456.6L2457.2,469.4L2472.9,479.4L2488.6,492.7L2504.3,503.8L2520.1,516.9L2535.8,528.2L2553.4,521.8" fill="none" stroke="#e8f2fb" stroke-width="1" opacity="0.20"/><path d="M2313,429.5L2322,435.4L2331,442.1L2340,450L2348.8,449.3L2357.5,447.1L2366.2,445.3L2375,443.1L2383.8,440.5L2392.5,437.3L2401.2,434.7L2410,432L2420.6,440.3L2431.2,448.6L2441.9,457.2L2452.5,464L2463.1,473L2473.8,480.5L2484.4,489.4L2495,497L2506.9,492.7" fill="none" stroke="#e8f2fb" stroke-width="1" opacity="0.20"/><path d="M2355.7,430.6L2360.7,433.9L2365.8,437.6L2370.8,442.1L2375.7,441.7L2380.6,440.5L2385.5,439.4L2390.4,438.2L2395.3,436.8L2400.2,435L2405.1,433.5L2410,432L2415.9,436.7L2421.9,441.3L2427.8,446.1L2433.8,449.9L2439.8,455L2445.7,459.2L2451.7,464.1L2457.6,468.4L2464.2,466" fill="none" stroke="#e8f2fb" stroke-width="1" opacity="0.20"/></g><path d="M0,1010L21.2,1003.3L42.5,998L63.8,989.7L85,984.2L106.2,975.3L127.5,969.7L148.8,964.1L170,962L193.8,967.7L217.5,970.4L241.2,973.7L265,973.9L288.8,978.2L312.5,980.5L336.2,986.1L360,995L383.1,984.6L406.2,972.8L429.4,957.1L452.5,944.4L475.6,937.6L498.8,927.6L521.9,916.9L545,905L570.6,911.1L596.2,914.9L621.9,923L647.5,930.1L673.1,933.3L698.8,937.2L724.4,940.2L750,940L776.2,926.9L802.5,909.4L828.8,890.7L855,874.5L881.2,855.3L907.5,836.7L933.8,822.4L960,806L983.8,813.6L1007.5,819.6L1031.2,824.5L1055,830.3L1078.8,832.9L1102.5,835.9L1126.2,844L1150,848L1174.4,823.7L1198.8,801.3L1223.1,773.1L1247.5,747.4L1271.9,723.5L1296.2,697.9L1320.6,670.5L1345,645L1366.9,655.6L1388.8,663.1L1410.6,667.7L1432.5,673.7L1454.4,681.7L1476.2,686.3L1498.1,695.7L1520,706L1542.5,690.3L1565,671.4L1587.5,656.6L1610,639.8L1632.5,622.7L1655,603.8L1677.5,583.8L1700,566L1728.8,553.2L1757.5,543.9L1786.2,529.3L1815,519.6L1843.8,503.9L1872.5,491.5L1901.2,481.6L1930,470L1954.5,456.8L1979,447.4L2003.5,431.5L2028,418L2052.5,404.3L2077,390L2101.5,371.5L2126,356L2144,369.3L2162,383.8L2180,398L2198,414.1L2216,427L2234,438.8L2252,452.1L2270,468L2287.5,466.7L2305,462.2L2322.5,458.5L2340,454.3L2357.5,449.1L2375,442.6L2392.5,437.4L2410,432L2431.2,448.6L2452.5,465.3L2473.8,482.5L2495,496.1L2516.2,514L2537.5,529L2558.8,546.7L2580,562L2603.8,553.3L2627.5,548.7L2651.2,543.3L2675,537.1L2698.8,533.7L2722.5,526.5L2746.2,525.8L2770,524L2793.8,536.5L2817.5,548.9L2841.2,565.1L2865,580L2888.8,595.5L2912.5,613.7L2936.2,631.8L2960,648L2982.5,647.7L3005,645.2L3027.5,640.2L3050,638.6L3072.5,634.2L3095,629.7L3117.5,626.2L3140,622L3160,633.9L3180,646.9L3200,658.2L3220,668.2L3240,683.8L3260,696.4L3280,711.7L3300,724L3317.5,721.1L3335,719.4L3352.5,713.6L3370,709.9L3387.5,707.1L3405,702L3422.5,697.3L3440,692" fill="none" stroke="#e8f2fb" stroke-width="2.4" opacity="0.95"/><path d="M0,1150H3440" stroke="#e8f2fb" stroke-width="1.2" opacity="0.3" stroke-dasharray="14 10" fill="none"/><path d="M-10,1201.9L70,1207.7L150,1206.6L230,1211.4L310,1212.3L390,1210L470,1210.9L550,1209.6L630,1208.2L710,1208L790,1206L870,1201.6L950,1200.7L1030,1199.6L1110,1198.1L1190,1195.5L1270,1196.7L1350,1197.8L1430,1200.8L1510,1202.1L1590,1203.5L1670,1204.1L1750,1208.8L1830,1207.7L1910,1209.5L1990,1209.5L2070,1211.3L2150,1211.6L2230,1210.1L2310,1208.9L2390,1206.4L2470,1204.1L2550,1200.4L2630,1201.4L2710,1200.1L2790,1198.2L2870,1199L2950,1199L3030,1200L3110,1201L3190,1203.2L3270,1204.8L3350,1204.7L3430,1209.5" fill="none" stroke="#e8f2fb" stroke-width="1" opacity="0.18"/><path d="M-10,1260.4L70,1260.9L150,1260.4L230,1256.7L310,1253.3L390,1251.7L470,1250.3L550,1247.7L630,1246.5L710,1245L790,1244.2L870,1243.4L950,1243.5L1030,1248.5L1110,1247.4L1190,1253.7L1270,1255.2L1350,1256.1L1430,1257.8L1510,1261.3L1590,1259.3L1670,1260.4L1750,1258L1830,1256.2L1910,1254.3L1990,1253.2L2070,1248L2150,1248.8L2230,1245.7L2310,1242.8L2390,1243.9L2470,1241.4L2550,1243.2L2630,1245.9L2710,1249.6L2790,1251.5L2870,1251.7L2950,1258L3030,1257L3110,1258.7L3190,1261.2L3270,1259.2L3350,1259.8L3430,1257.4" fill="none" stroke="#e8f2fb" stroke-width="1" opacity="0.16"/><path d="M-10,1297.4L70,1293.9L150,1291.5L230,1289.4L310,1289L390,1289.8L470,1290L550,1292.5L630,1294.3L710,1297.9L790,1300L870,1304.7L950,1307.7L1030,1308.3L1110,1310.1L1190,1311.1L1270,1309.9L1350,1308.7L1430,1304.5L1510,1303.6L1590,1297.6L1670,1297.4L1750,1292.2L1830,1289.7L1910,1288.7L1990,1290.8L2070,1290.5L2150,1293.2L2230,1295.8L2310,1296.8L2390,1301.5L2470,1301.8L2550,1307.8L2630,1308L2710,1309.8L2790,1311.7L2870,1310.5L2950,1309.2L3030,1306L3110,1303.3L3190,1302.1L3270,1295.2L3350,1292.1L3430,1292.1" fill="none" stroke="#e8f2fb" stroke-width="1" opacity="0.14"/><path d="M-10,1334.1L70,1336.7L150,1339.7L230,1342.3L310,1347.7L390,1353.9L470,1357L550,1356.6L630,1362.3L710,1362.6L790,1361.9L870,1357.5L950,1355.4L1030,1351.3L1110,1349.7L1190,1345.6L1270,1340.2L1350,1339.9L1430,1336.9L1510,1335.9L1590,1335L1670,1338.2L1750,1339.5L1830,1343.7L1910,1348.1L1990,1348.7L2070,1352.4L2150,1356.3L2230,1361.3L2310,1360.2L2390,1360.4L2470,1359.9L2550,1357.5L2630,1353.9L2710,1351.7L2790,1346.3L2870,1343.6L2950,1337.8L3030,1337.7L3110,1335.2L3190,1335.1L3270,1334.6L3350,1339.6L3430,1339.7" fill="none" stroke="#e8f2fb" stroke-width="1" opacity="0.12"/><path d="M-10,1404L70,1406.7L150,1407.4L230,1412.6L310,1411.9L390,1407.9L470,1405.7L550,1405.1L630,1398.8L710,1394.7L790,1389.6L870,1384.1L950,1381.4L1030,1380.5L1110,1379.5L1190,1381.7L1270,1384L1350,1388.9L1430,1390.2L1510,1397.3L1590,1400.1L1670,1405.7L1750,1407.7L1830,1408.6L1910,1411.9L1990,1408.5L2070,1409.4L2150,1404.2L2230,1399.3L2310,1396.7L2390,1392.5L2470,1389.6L2550,1383.1L2630,1380.4L2710,1382.7L2790,1380.6L2870,1383.8L2950,1386.6L3030,1392.1L3110,1395.1L3190,1400.5L3270,1402.3L3350,1408.3L3430,1409.6" fill="none" stroke="#e8f2fb" stroke-width="1" opacity="0.10"/><text x="340" y="1252.8" font-family="DejaVu Sans Mono,monospace" font-size="16" fill="#cfe3f5" opacity="0.16">0</text><text x="386" y="1253" font-family="DejaVu Sans Mono,monospace" font-size="16" fill="#cfe3f5" opacity="0.16">1</text><text x="432" y="1253" font-family="DejaVu Sans Mono,monospace" font-size="16" fill="#cfe3f5" opacity="0.16">0</text><text x="478" y="1252.8" font-family="DejaVu Sans Mono,monospace" font-size="16" fill="#cfe3f5" opacity="0.16">1</text><text x="524" y="1252.3" font-family="DejaVu Sans Mono,monospace" font-size="16" fill="#cfe3f5" opacity="0.16">0</text><text x="570" y="1251.7" font-family="DejaVu Sans Mono,monospace" font-size="16" fill="#cfe3f5" opacity="0.16">0</text><text x="616" y="1250.9" font-family="DejaVu Sans Mono,monospace" font-size="16" fill="#cfe3f5" opacity="0.16">1</text><text x="662" y="1249.9" font-family="DejaVu Sans Mono,monospace" font-size="16" fill="#cfe3f5" opacity="0.16">1</text><text x="708" y="1248.8" font-family="DejaVu Sans Mono,monospace" font-size="16" fill="#cfe3f5" opacity="0.16"> </text><text x="754" y="1247.7" font-family="DejaVu Sans Mono,monospace" font-size="16" fill="#cfe3f5" opacity="0.16">0</text><text x="800" y="1246.5" font-family="DejaVu Sans Mono,monospace" font-size="16" fill="#cfe3f5" opacity="0.16">1</text><text x="846" y="1245.2" font-family="DejaVu Sans Mono,monospace" font-size="16" fill="#cfe3f5" opacity="0.16">1</text><text x="892" y="1244" font-family="DejaVu Sans Mono,monospace" font-size="16" fill="#cfe3f5" opacity="0.16">0</text><text x="938" y="1242.9" font-family="DejaVu Sans Mono,monospace" font-size="16" fill="#cfe3f5" opacity="0.16">1</text><text x="984" y="1241.8" font-family="DejaVu Sans Mono,monospace" font-size="16" fill="#cfe3f5" opacity="0.16">1</text><text x="1030" y="1240.9" font-family="DejaVu Sans Mono,monospace" font-size="16" fill="#cfe3f5" opacity="0.16">1</text><text x="1076" y="1240.1" font-family="DejaVu Sans Mono,monospace" font-size="16" fill="#cfe3f5" opacity="0.16">0</text><text x="1122" y="1239.5" font-family="DejaVu Sans Mono,monospace" font-size="16" fill="#cfe3f5" opacity="0.16"> </text><text x="1168" y="1239.2" font-family="DejaVu Sans Mono,monospace" font-size="16" fill="#cfe3f5" opacity="0.16">0</text><text x="1214" y="1239" font-family="DejaVu Sans Mono,monospace" font-size="16" fill="#cfe3f5" opacity="0.16">1</text><text x="1260" y="1239.1" font-family="DejaVu Sans Mono,monospace" font-size="16" fill="#cfe3f5" opacity="0.16">1</text><text x="1306" y="1239.3" font-family="DejaVu Sans Mono,monospace" font-size="16" fill="#cfe3f5" opacity="0.16">0</text><text x="1352" y="1239.8" font-family="DejaVu Sans Mono,monospace" font-size="16" fill="#cfe3f5" opacity="0.16">1</text><text x="1398" y="1240.5" font-family="DejaVu Sans Mono,monospace" font-size="16" fill="#cfe3f5" opacity="0.16">1</text><text x="1444" y="1241.3" font-family="DejaVu Sans Mono,monospace" font-size="16" fill="#cfe3f5" opacity="0.16">1</text><text x="1490" y="1242.3" font-family="DejaVu Sans Mono,monospace" font-size="16" fill="#cfe3f5" opacity="0.16">1</text><text x="1536" y="1243.4" font-family="DejaVu Sans Mono,monospace" font-size="16" fill="#cfe3f5" opacity="0.16"> </text><text x="1582" y="1244.6" font-family="DejaVu Sans Mono,monospace" font-size="16" fill="#cfe3f5" opacity="0.16">0</text><text x="1628" y="1245.8" font-family="DejaVu Sans Mono,monospace" font-size="16" fill="#cfe3f5" opacity="0.16">1</text><text x="1674" y="1247.1" font-family="DejaVu Sans Mono,monospace" font-size="16" fill="#cfe3f5" opacity="0.16">1</text><text x="1720" y="1248.3" font-family="DejaVu Sans Mono,monospace" font-size="16" fill="#cfe3f5" opacity="0.16">1</text><text x="1766" y="1249.4" font-family="DejaVu Sans Mono,monospace" font-size="16" fill="#cfe3f5" opacity="0.16">0</text><text x="1812" y="1250.4" font-family="DejaVu Sans Mono,monospace" font-size="16" fill="#cfe3f5" opacity="0.16">1</text><text x="1858" y="1251.3" font-family="DejaVu Sans Mono,monospace" font-size="16" fill="#cfe3f5" opacity="0.16">1</text><text x="1904" y="1252" font-family="DejaVu Sans Mono,monospace" font-size="16" fill="#cfe3f5" opacity="0.16">1</text><path d="M240,1444V1330H420V1268" fill="none" stroke="#9fc6e8" stroke-width="1.6" opacity="0.14"/><circle cx="420" cy="1268" r="5" fill="none" stroke="#9fc6e8" stroke-width="1.4" opacity="0.2"/><circle cx="420" cy="1268" r="1.8" fill="#9fc6e8" opacity="0.25"/><path d="M520,1444V1372H760V1310H900" fill="none" stroke="#9fc6e8" stroke-width="1.6" opacity="0.14"/><circle cx="900" cy="1310" r="5" fill="none" stroke="#9fc6e8" stroke-width="1.4" opacity="0.2"/><circle cx="900" cy="1310" r="1.8" fill="#9fc6e8" opacity="0.25"/><path d="M2660,1444V1380H2520V1330" fill="none" stroke="#9fc6e8" stroke-width="1.6" opacity="0.14"/><circle cx="2520" cy="1330" r="5" fill="none" stroke="#9fc6e8" stroke-width="1.4" opacity="0.2"/><circle cx="2520" cy="1330" r="1.8" fill="#9fc6e8" opacity="0.25"/><path d="M-4,1230H240V1180H380" fill="none" stroke="#9fc6e8" stroke-width="1.6" opacity="0.14"/><circle cx="380" cy="1180" r="5" fill="none" stroke="#9fc6e8" stroke-width="1.4" opacity="0.2"/><circle cx="380" cy="1180" r="1.8" fill="#9fc6e8" opacity="0.25"/><path d="M-4,1052H210V1092H460V1058" fill="none" stroke="#9fc6e8" stroke-width="1.6" opacity="0.14"/><circle cx="460" cy="1058" r="5" fill="none" stroke="#9fc6e8" stroke-width="1.4" opacity="0.2"/><circle cx="460" cy="1058" r="1.8" fill="#9fc6e8" opacity="0.25"/><path d="M1560,1444V1396H1720V1352" fill="none" stroke="#9fc6e8" stroke-width="1.6" opacity="0.14"/><circle cx="1720" cy="1352" r="5" fill="none" stroke="#9fc6e8" stroke-width="1.4" opacity="0.2"/><circle cx="1720" cy="1352" r="1.8" fill="#9fc6e8" opacity="0.25"/><g stroke="#cfe3f5" stroke-width="1.1" opacity="0.5" fill="none"><path d="M2136,356H2252"/><path d="M2240,1150"/><path d="M2246,368V1140"/><path d="M2246,368l-5,12M2246,368l5,12"/><path d="M2246,1140l-5,-12M2246,1140l5,-12"/></g><text transform="translate(2274,742) rotate(-90)" font-family="DejaVu Sans Mono,monospace" font-size="21" fill="#cfe3f5" opacity="0.55" text-anchor="middle">ELEV 3440 · 0b110101110000</text><g stroke="#cfe3f5" stroke-width="1" opacity="0.5" fill="none"><circle cx="2126" cy="356" r="9"/><path d="M2111,356H2141M2126,341V371"/></g><text x="2152" y="342" font-family="DejaVu Sans Mono,monospace" font-size="19" fill="#cfe3f5" opacity="0.5" text-anchor="start">P1 · x/W = 0.618</text><g stroke="#cfe3f5" stroke-width="1" opacity="0.5" fill="none"><circle cx="1345" cy="645" r="9"/><path d="M1330,645H1360M1345,630V660"/></g><text x="1319" y="631" font-family="DejaVu Sans Mono,monospace" font-size="19" fill="#cfe3f5" opacity="0.5" text-anchor="end">P2 (1345, 645)</text><path d="M1930,470 h120" stroke="#cfe3f5" stroke-width="1" opacity="0.4" stroke-dasharray="5 5" fill="none"/><path d="M2028,470 A98,98 0 0 0 2016,420" stroke="#cfe3f5" stroke-width="1" opacity="0.45" fill="none"/><text x="2044" y="452" font-family="DejaVu Sans Mono,monospace" font-size="18" fill="#cfe3f5" opacity="0.5">θ = 30.2°</text><text x="2980" y="1178" font-family="DejaVu Sans Mono,monospace" font-size="19" fill="#cfe3f5" opacity="0.5">DATUM 0.000 · REF MSL</text><text x="120" y="1082" font-family="DejaVu Sans Mono,monospace" font-size="18" fill="#cfe3f5" opacity="0.42">∂z/∂x = 0.62</text><g stroke="#cfe3f5" stroke-width="1.2" opacity="0.35" fill="none"><rect x="2952" y="1296" width="440" height="116"/><path d="M2952,1334H3392M2952,1372H3392"/></g><text x="2972" y="1322" font-family="DejaVu Sans Mono,monospace" font-size="18" fill="#cfe3f5" opacity="0.55">SNOW · ALPINE SERIES</text><text x="2972" y="1360" font-family="DejaVu Sans Mono,monospace" font-size="18" fill="#cfe3f5" opacity="0.55">SHEET 03 / 04 · BLUEPRINT</text><text x="2972" y="1398" font-family="DejaVu Sans Mono,monospace" font-size="18" fill="#cfe3f5" opacity="0.55">SCALE 1:1440 · REV 0x0D70</text><rect width="3440" height="1440" fill="url(#vig)" opacity="0.22" pointer-events="none"/></svg>