<svg xmlns="http://www.w3.org/2000/svg" width="3440" height="1440" viewBox="0 0 3440 1440"><title>Snow — Alpine Morning</title><defs><filter id="soft1" x="-40%" y="-40%" width="180%" height="180%"><feGaussianBlur stdDeviation="1.2"/></filter><filter id="soft2" x="-80%" y="-80%" width="260%" height="260%"><feGaussianBlur stdDeviation="3"/></filter><filter id="soft3" x="-80%" y="-80%" width="260%" height="260%"><feGaussianBlur stdDeviation="4.5"/></filter><filter id="soft6" x="-60%" y="-60%" width="220%" height="220%"><feGaussianBlur stdDeviation="8"/></filter><linearGradient id="sky" x1="0" y1="0" x2="0" y2="1"><stop offset="0" stop-color="#5093c9" stop-opacity="1"/><stop offset="0.45" stop-color="#96c2e4" stop-opacity="1"/><stop offset="0.8" stop-color="#d3e8f6" stop-opacity="1"/><stop offset="1" stop-color="#eef7fc" stop-opacity="1"/></linearGradient><linearGradient id="fieldg" x1="0" y1="0" x2="0" y2="1"><stop offset="0" stop-color="#f6fbfe" stop-opacity="1"/><stop offset="1" stop-color="#dcebf6" stop-opacity="1"/></linearGradient><linearGradient id="mainsnow" x1="0" y1="330" x2="0" y2="1150" gradientUnits="userSpaceOnUse"><stop offset="0" stop-color="#ffffff" stop-opacity="1"/><stop offset="0.5" stop-color="#ecf4fa" stop-opacity="1"/><stop offset="1" stop-color="#cfe2f1" stop-opacity="1"/></linearGradient><linearGradient id="sunlight" x1="1" y1="0" x2="0" y2="1"><stop offset="0" stop-color="#ffffff" stop-opacity="0.7"/><stop offset="0.55" stop-color="#ffffff" stop-opacity="0.0"/></linearGradient><linearGradient id="shade" x1="0" y1="0" x2="1" y2="0"><stop offset="0" stop-color="#6d9cc4" stop-opacity="0.5"/><stop offset="0.5" stop-color="#6d9cc4" stop-opacity="0.0"/></linearGradient><linearGradient id="hazed" x1="0" y1="700" x2="0" y2="1150" gradientUnits="userSpaceOnUse"><stop offset="0" stop-color="#ffffff" stop-opacity="0.0"/><stop offset="1" stop-color="#ffffff" stop-opacity="0.4"/></linearGradient><radialGradient id="sunglow"><stop offset="0" stop-color="#ffffff" stop-opacity="0.75"/><stop offset="0.4" stop-color="#ffffff" stop-opacity="0.22"/><stop offset="1" stop-color="#ffffff" stop-opacity="0.0"/></radialGradient><pattern id="hexd" width="156" height="90.1" patternUnits="userSpaceOnUse"><path d="M52,0L26,45L-26,45L-52,0L-26,-45L26,-45Z" transform="translate(0,0)" fill="none" stroke="#9fc2dd" stroke-width="1.0"/><path d="M52,0L26,45L-26,45L-52,0L-26,-45L26,-45Z" transform="translate(156,0)" fill="none" stroke="#9fc2dd" stroke-width="1.0"/><path d="M52,0L26,45L-26,45L-52,0L-26,-45L26,-45Z" transform="translate(0,90.1)" fill="none" stroke="#9fc2dd" stroke-width="1.0"/><path d="M52,0L26,45L-26,45L-52,0L-26,-45L26,-45Z" transform="translate(156,90.1)" fill="none" stroke="#9fc2dd" stroke-width="1.0"/><path d="M52,0L26,45L-26,45L-52,0L-26,-45L26,-45Z" transform="translate(78,45)" fill="none" stroke="#9fc2dd" stroke-width="1.0"/></pattern><radialGradient id="hexdmg"><stop offset="0" stop-color="#ffffff" stop-opacity="1"/><stop offset="1" stop-color="#ffffff" stop-opacity="0"/></radialGradient><clipPath id="clipMain"><path d="M-4,1010L0,1010L21.2,1003.3L42.5,998L63.8,989.7L85,984.2L106.2,975.3L127.5,969.7L148.8,964.1L170,962L193.8,967.7L217.5,970.4L241.2,973.7L265,973.9L288.8,978.2L312.5,980.5L336.2,986.1L360,995L383.1,984.6L406.2,972.8L429.4,957.1L452.5,944.4L475.6,937.6L498.8,927.6L521.9,916.9L545,905L570.6,911.1L596.2,914.9L621.9,923L647.5,930.1L673.1,933.3L698.8,937.2L724.4,940.2L750,940L776.2,926.9L802.5,909.4L828.8,890.7L855,874.5L881.2,855.3L907.5,836.7L933.8,822.4L960,806L983.8,813.6L1007.5,819.6L1031.2,824.5L1055,830.3L1078.8,832.9L1102.5,835.9L1126.2,844L1150,848L1174.4,823.7L1198.8,801.3L1223.1,773.1L1247.5,747.4L1271.9,723.5L1296.2,697.9L1320.6,670.5L1345,645L1366.9,655.6L1388.8,663.1L1410.6,667.7L1432.5,673.7L1454.4,681.7L1476.2,686.3L1498.1,695.7L1520,706L1542.5,690.3L1565,671.4L1587.5,656.6L1610,639.8L1632.5,622.7L1655,603.8L1677.5,583.8L1700,566L1728.8,553.2L1757.5,543.9L1786.2,529.3L1815,519.6L1843.8,503.9L1872.5,491.5L1901.2,481.6L1930,470L1954.5,456.8L1979,447.4L2003.5,431.5L2028,418L2052.5,404.3L2077,390L2101.5,371.5L2126,356L2144,369.3L2162,383.8L2180,398L2198,414.1L2216,427L2234,438.8L2252,452.1L2270,468L2287.5,466.7L2305,462.2L2322.5,458.5L2340,454.3L2357.5,449.1L2375,442.6L2392.5,437.4L2410,432L2431.2,448.6L2452.5,465.3L2473.8,482.5L2495,496.1L2516.2,514L2537.5,529L2558.8,546.7L2580,562L2603.8,553.3L2627.5,548.7L2651.2,543.3L2675,537.1L2698.8,533.7L2722.5,526.5L2746.2,525.8L2770,524L2793.8,536.5L2817.5,548.9L2841.2,565.1L2865,580L2888.8,595.5L2912.5,613.7L2936.2,631.8L2960,648L2982.5,647.7L3005,645.2L3027.5,640.2L3050,638.6L3072.5,634.2L3095,629.7L3117.5,626.2L3140,622L3160,633.9L3180,646.9L3200,658.2L3220,668.2L3240,683.8L3260,696.4L3280,711.7L3300,724L3317.5,721.1L3335,719.4L3352.5,713.6L3370,709.9L3387.5,707.1L3405,702L3422.5,697.3L3440,692L3444,692L3444,1444L-4,1444Z"/></clipPath><clipPath id="clipMid"><path d="M-4,942L0,942L28.8,933.9L57.5,925.2L86.2,920L115,913.2L143.8,903.7L172.5,897.8L201.2,887.8L230,880L260,881.3L290,884.4L320,884.4L350,888L380,891.7L410,897.7L440,903.2L470,912L501.2,897.2L532.5,884.3L563.8,870.3L595,855.1L626.2,843.6L657.5,833.2L688.8,819.1L720,806L752.5,806.7L785,810L817.5,815.4L850,823L882.5,833.1L915,839.3L947.5,845.3L980,850L1012.5,841.2L1045,831.5L1077.5,818.9L1110,809.3L1142.5,797.3L1175,783.2L1207.5,770.1L1240,760L1275,766.1L1310,773.4L1345,785.8L1380,793.5L1415,803L1450,811.2L1485,815.9L1520,820L1555,807L1590,792.2L1625,781.6L1660,767.7L1695,750.1L1730,729.9L1765,713.6L1800,700L1832.5,701.7L1865,707.6L1897.5,714.2L1930,722.5L1962.5,732.4L1995,744.4L2027.5,750.9L2060,760L2096.2,753.6L2132.5,742.8L2168.8,735L2205,723.4L2241.2,715.7L2277.5,709.8L2313.8,700.7L2350,690L2386.2,696L2422.5,703.1L2458.8,709.4L2495,711.5L2531.2,721.6L2567.5,732.1L2603.8,740.9L2640,752L2676.2,745.2L2712.5,740.9L2748.8,730.9L2785,720.3L2821.2,713.4L2857.5,708.9L2893.8,704.9L2930,700L2963.8,709.9L2997.5,716L3031.2,723.1L3065,731.1L3098.8,739.1L3132.5,749.7L3166.2,758.2L3200,762L3230,756.5L3260,751L3290,742.8L3320,738L3350,735.7L3380,737.1L3410,731.9L3440,730L3444,730L3444,1444L-4,1444Z"/></clipPath><clipPath id="clipFar"><path d="M-4,880L0,880L32.5,869.3L65,861.5L97.5,850.8L130,839.3L162.5,833.3L195,825.2L227.5,820L260,812L292.5,815.2L325,819.6L357.5,825.8L390,831.9L422.5,837.4L455,841.5L487.5,842.5L520,846L555,836.7L590,824.7L625,812.7L660,798.4L695,787.1L730,779.2L765,771L800,762L832.5,764.7L865,768.3L897.5,773.2L930,780.5L962.5,785.8L995,790.3L1027.5,796.9L1060,800L1093.8,793.6L1127.5,786.8L1161.2,778.7L1195,773.6L1228.8,766.7L1262.5,759.9L1296.2,752L1330,742L1366.2,749.9L1402.5,754.2L1438.8,760.3L1475,764.8L1511.2,766.2L1547.5,771.4L1583.8,776.6L1620,778L1655,772L1690,765.2L1725,756.6L1760,751.3L1795,743L1830,737.7L1865,730.2L1900,726L1935,730.1L1970,732.9L2005,738.6L2040,747L2075,751.7L2110,754L2145,759.5L2180,768L2220,764L2260,759.7L2300,751.3L2340,743.4L2380,741L2420,742.7L2460,737.1L2500,736L2540,742.1L2580,744.6L2620,752.8L2660,756.8L2700,762.6L2740,771.9L2780,777L2820,780L2847.5,776.4L2875,769.9L2902.5,765.9L2930,759.4L2957.5,755L2985,748.3L3012.5,744.6L3040,742L3067.5,735.6L3095,727.9L3122.5,718.6L3150,709.3L3177.5,700.6L3205,689.2L3232.5,679.2L3260,668L3282.5,674.8L3305,679.9L3327.5,684.6L3350,687.5L3372.5,692.3L3395,697.6L3417.5,702.4L3440,706L3444,706L3444,1444L-4,1444Z"/></clipPath><clipPath id="clipLake"><rect x="0" y="1150" width="3440" height="290"/></clipPath></defs><rect width="3440" height="1440" fill="url(#sky)"/><circle cx="3080" cy="185" r="520" fill="url(#sunglow)"/><ellipse cx="880" cy="215" rx="430" ry="13" fill="#ffffff" opacity="0.20" filter="url(#soft6)"/><ellipse cx="1560" cy="128" rx="300" ry="9" fill="#ffffff" opacity="0.14" filter="url(#soft6)"/><ellipse cx="2440" cy="330" rx="360" ry="11" fill="#ffffff" opacity="0.12" filter="url(#soft6)"/><path d="M-4,880L0,880L32.5,869.3L65,861.5L97.5,850.8L130,839.3L162.5,833.3L195,825.2L227.5,820L260,812L292.5,815.2L325,819.6L357.5,825.8L390,831.9L422.5,837.4L455,841.5L487.5,842.5L520,846L555,836.7L590,824.7L625,812.7L660,798.4L695,787.1L730,779.2L765,771L800,762L832.5,764.7L865,768.3L897.5,773.2L930,780.5L962.5,785.8L995,790.3L1027.5,796.9L1060,800L1093.8,793.6L1127.5,786.8L1161.2,778.7L1195,773.6L1228.8,766.7L1262.5,759.9L1296.2,752L1330,742L1366.2,749.9L1402.5,754.2L1438.8,760.3L1475,764.8L1511.2,766.2L1547.5,771.4L1583.8,776.6L1620,778L1655,772L1690,765.2L1725,756.6L1760,751.3L1795,743L1830,737.7L1865,730.2L1900,726L1935,730.1L1970,732.9L2005,738.6L2040,747L2075,751.7L2110,754L2145,759.5L2180,768L2220,764L2260,759.7L2300,751.3L2340,743.4L2380,741L2420,742.7L2460,737.1L2500,736L2540,742.1L2580,744.6L2620,752.8L2660,756.8L2700,762.6L2740,771.9L2780,777L2820,780L2847.5,776.4L2875,769.9L2902.5,765.9L2930,759.4L2957.5,755L2985,748.3L3012.5,744.6L3040,742L3067.5,735.6L3095,727.9L3122.5,718.6L3150,709.3L3177.5,700.6L3205,689.2L3232.5,679.2L3260,668L3282.5,674.8L3305,679.9L3327.5,684.6L3350,687.5L3372.5,692.3L3395,697.6L3417.5,702.4L3440,706L3444,706L3444,1444L-4,1444Z" fill="#b6d1e9"/><rect width="3440" height="1440" fill="url(#hazed)" opacity="0.4"/><path d="M-4,942L0,942L28.8,933.9L57.5,925.2L86.2,920L115,913.2L143.8,903.7L172.5,897.8L201.2,887.8L230,880L260,881.3L290,884.4L320,884.4L350,888L380,891.7L410,897.7L440,903.2L470,912L501.2,897.2L532.5,884.3L563.8,870.3L595,855.1L626.2,843.6L657.5,833.2L688.8,819.1L720,806L752.5,806.7L785,810L817.5,815.4L850,823L882.5,833.1L915,839.3L947.5,845.3L980,850L1012.5,841.2L1045,831.5L1077.5,818.9L1110,809.3L1142.5,797.3L1175,783.2L1207.5,770.1L1240,760L1275,766.1L1310,773.4L1345,785.8L1380,793.5L1415,803L1450,811.2L1485,815.9L1520,820L1555,807L1590,792.2L1625,781.6L1660,767.7L1695,750.1L1730,729.9L1765,713.6L1800,700L1832.5,701.7L1865,707.6L1897.5,714.2L1930,722.5L1962.5,732.4L1995,744.4L2027.5,750.9L2060,760L2096.2,753.6L2132.5,742.8L2168.8,735L2205,723.4L2241.2,715.7L2277.5,709.8L2313.8,700.7L2350,690L2386.2,696L2422.5,703.1L2458.8,709.4L2495,711.5L2531.2,721.6L2567.5,732.1L2603.8,740.9L2640,752L2676.2,745.2L2712.5,740.9L2748.8,730.9L2785,720.3L2821.2,713.4L2857.5,708.9L2893.8,704.9L2930,700L2963.8,709.9L2997.5,716L3031.2,723.1L3065,731.1L3098.8,739.1L3132.5,749.7L3166.2,758.2L3200,762L3230,756.5L3260,751L3290,742.8L3320,738L3350,735.7L3380,737.1L3410,731.9L3440,730L3444,730L3444,1444L-4,1444Z" fill="#93b9dc"/><g clip-path="url(#clipMid)"><rect width="3440" height="1440" fill="url(#sunlight)" opacity="0.5"/></g><rect width="3440" height="1440" fill="url(#hazed)" opacity="0.35"/><path d="M-4,1010L0,1010L21.2,1003.3L42.5,998L63.8,989.7L85,984.2L106.2,975.3L127.5,969.7L148.8,964.1L170,962L193.8,967.7L217.5,970.4L241.2,973.7L265,973.9L288.8,978.2L312.5,980.5L336.2,986.1L360,995L383.1,984.6L406.2,972.8L429.4,957.1L452.5,944.4L475.6,937.6L498.8,927.6L521.9,916.9L545,905L570.6,911.1L596.2,914.9L621.9,923L647.5,930.1L673.1,933.3L698.8,937.2L724.4,940.2L750,940L776.2,926.9L802.5,909.4L828.8,890.7L855,874.5L881.2,855.3L907.5,836.7L933.8,822.4L960,806L983.8,813.6L1007.5,819.6L1031.2,824.5L1055,830.3L1078.8,832.9L1102.5,835.9L1126.2,844L1150,848L1174.4,823.7L1198.8,801.3L1223.1,773.1L1247.5,747.4L1271.9,723.5L1296.2,697.9L1320.6,670.5L1345,645L1366.9,655.6L1388.8,663.1L1410.6,667.7L1432.5,673.7L1454.4,681.7L1476.2,686.3L1498.1,695.7L1520,706L1542.5,690.3L1565,671.4L1587.5,656.6L1610,639.8L1632.5,622.7L1655,603.8L1677.5,583.8L1700,566L1728.8,553.2L1757.5,543.9L1786.2,529.3L1815,519.6L1843.8,503.9L1872.5,491.5L1901.2,481.6L1930,470L1954.5,456.8L1979,447.4L2003.5,431.5L2028,418L2052.5,404.3L2077,390L2101.5,371.5L2126,356L2144,369.3L2162,383.8L2180,398L2198,414.1L2216,427L2234,438.8L2252,452.1L2270,468L2287.5,466.7L2305,462.2L2322.5,458.5L2340,454.3L2357.5,449.1L2375,442.6L2392.5,437.4L2410,432L2431.2,448.6L2452.5,465.3L2473.8,482.5L2495,496.1L2516.2,514L2537.5,529L2558.8,546.7L2580,562L2603.8,553.3L2627.5,548.7L2651.2,543.3L2675,537.1L2698.8,533.7L2722.5,526.5L2746.2,525.8L2770,524L2793.8,536.5L2817.5,548.9L2841.2,565.1L2865,580L2888.8,595.5L2912.5,613.7L2936.2,631.8L2960,648L2982.5,647.7L3005,645.2L3027.5,640.2L3050,638.6L3072.5,634.2L3095,629.7L3117.5,626.2L3140,622L3160,633.9L3180,646.9L3200,658.2L3220,668.2L3240,683.8L3260,696.4L3280,711.7L3300,724L3317.5,721.1L3335,719.4L3352.5,713.6L3370,709.9L3387.5,707.1L3405,702L3422.5,697.3L3440,692L3444,692L3444,1444L-4,1444Z" fill="url(#mainsnow)"/><g clip-path="url(#clipMain)"><rect width="3440" height="1440" fill="url(#shade)"/><rect width="3440" height="1440" fill="url(#sunlight)"/></g><path d="M0,1010L21.2,1003.3L42.5,998L63.8,989.7L85,984.2L106.2,975.3L127.5,969.7L148.8,964.1L170,962L193.8,967.7L217.5,970.4L241.2,973.7L265,973.9L288.8,978.2L312.5,980.5L336.2,986.1L360,995L383.1,984.6L406.2,972.8L429.4,957.1L452.5,944.4L475.6,937.6L498.8,927.6L521.9,916.9L545,905L570.6,911.1L596.2,914.9L621.9,923L647.5,930.1L673.1,933.3L698.8,937.2L724.4,940.2L750,940L776.2,926.9L802.5,909.4L828.8,890.7L855,874.5L881.2,855.3L907.5,836.7L933.8,822.4L960,806L983.8,813.6L1007.5,819.6L1031.2,824.5L1055,830.3L1078.8,832.9L1102.5,835.9L1126.2,844L1150,848L1174.4,823.7L1198.8,801.3L1223.1,773.1L1247.5,747.4L1271.9,723.5L1296.2,697.9L1320.6,670.5L1345,645L1366.9,655.6L1388.8,663.1L1410.6,667.7L1432.5,673.7L1454.4,681.7L1476.2,686.3L1498.1,695.7L1520,706L1542.5,690.3L1565,671.4L1587.5,656.6L1610,639.8L1632.5,622.7L1655,603.8L1677.5,583.8L1700,566L1728.8,553.2L1757.5,543.9L1786.2,529.3L1815,519.6L1843.8,503.9L1872.5,491.5L1901.2,481.6L1930,470L1954.5,456.8L1979,447.4L2003.5,431.5L2028,418L2052.5,404.3L2077,390L2101.5,371.5L2126,356L2144,369.3L2162,383.8L2180,398L2198,414.1L2216,427L2234,438.8L2252,452.1L2270,468L2287.5,466.7L2305,462.2L2322.5,458.5L2340,454.3L2357.5,449.1L2375,442.6L2392.5,437.4L2410,432L2431.2,448.6L2452.5,465.3L2473.8,482.5L2495,496.1L2516.2,514L2537.5,529L2558.8,546.7L2580,562L2603.8,553.3L2627.5,548.7L2651.2,543.3L2675,537.1L2698.8,533.7L2722.5,526.5L2746.2,525.8L2770,524L2793.8,536.5L2817.5,548.9L2841.2,565.1L2865,580L2888.8,595.5L2912.5,613.7L2936.2,631.8L2960,648L2982.5,647.7L3005,645.2L3027.5,640.2L3050,638.6L3072.5,634.2L3095,629.7L3117.5,626.2L3140,622L3160,633.9L3180,646.9L3200,658.2L3220,668.2L3240,683.8L3260,696.4L3280,711.7L3300,724L3317.5,721.1L3335,719.4L3352.5,713.6L3370,709.9L3387.5,707.1L3405,702L3422.5,697.3L3440,692" fill="none" stroke="#ffffff" stroke-width="2.4" opacity="0.85"/><rect width="3440" height="1440" fill="url(#hazed)" opacity="0.25"/><path d="M-4,1136L0,1136L100,1133.1L200,1131.7L300,1129.3L400,1128L525,1131.1L650,1134.2L775,1138.1L900,1140L1050,1138.8L1200,1136.7L1350,1133.1L1500,1130L1650,1132L1800,1134.4L1950,1138.7L2100,1142L2250,1138.4L2400,1135.7L2550,1132.8L2700,1132L2800,1133.8L2900,1134.5L3000,1137.4L3100,1140L3185,1137.5L3270,1136L3355,1134.4L3440,1134L3444,1134L3444,1444L-4,1444Z" fill="url(#fieldg)"/><ellipse cx="700" cy="1265" rx="1250" ry="64" fill="#b9d3e8" opacity="0.1" filter="url(#soft6)"/><ellipse cx="2120" cy="1350" rx="1500" ry="76" fill="#b9d3e8" opacity="0.09" filter="url(#soft6)"/><ellipse cx="3080" cy="1240" rx="950" ry="52" fill="#b9d3e8" opacity="0.1" filter="url(#soft6)"/><mask id="hexdm"><rect width="3440" height="1440" fill="black"/><circle cx="900" cy="1290" r="560" fill="url(#hexdmg)"/></mask><rect width="3440" height="1440" fill="url(#hexd)" opacity="0.06" mask="url(#hexdm)"/><circle cx="312.2" cy="1388.9" r="1.2" fill="#ffffff" opacity="0.41"/><circle cx="2682.1" cy="1324.6" r="1.4" fill="#ffffff" opacity="0.61"/><circle cx="2488" cy="1371.5" r="1" fill="#ffffff" opacity="0.35"/><circle cx="3088.4" cy="1200.5" r="1.2" fill="#ffffff" opacity="0.80"/><circle cx="1205.7" cy="1238" r="1" fill="#ffffff" opacity="0.40"/><circle cx="2579.5" cy="1247.5" r="0.8" fill="#ffffff" opacity="0.60"/><circle cx="891.6" cy="1216.5" r="0.7" fill="#ffffff" opacity="0.72"/><circle cx="1299.4" cy="1326" r="1.1" fill="#ffffff" opacity="0.73"/><circle cx="231.6" cy="1334.8" r="1.4" fill="#ffffff" opacity="0.44"/><circle cx="1491.9" cy="1257.5" r="1" fill="#ffffff" opacity="0.77"/><circle cx="786.4" cy="1361.8" r="0.7" fill="#ffffff" opacity="0.69"/><circle cx="276.7" cy="1375.2" r="0.8" fill="#ffffff" opacity="0.41"/><circle cx="907.5" cy="1243.2" r="1.4" fill="#ffffff" opacity="0.55"/><circle cx="157.5" cy="1217.5" r="1.1" fill="#ffffff" opacity="0.66"/><circle cx="2203.9" cy="1294.8" r="1.4" fill="#ffffff" opacity="0.77"/><circle cx="3266.2" cy="1427.8" r="1.5" fill="#ffffff" opacity="0.79"/><circle cx="2464.5" cy="1350" r="1.2" fill="#ffffff" opacity="0.50"/><circle cx="2879.6" cy="1269.3" r="1.5" fill="#ffffff" opacity="0.52"/><circle cx="76.2" cy="1390.4" r="1.1" fill="#ffffff" opacity="0.30"/><circle cx="2813.8" cy="1376.5" r="1.5" fill="#ffffff" opacity="0.53"/><circle cx="576.9" cy="1226.4" r="1.2" fill="#ffffff" opacity="0.64"/><circle cx="1916.8" cy="1232.6" r="0.8" fill="#ffffff" opacity="0.79"/><circle cx="3432.7" cy="1414.5" r="1.2" fill="#ffffff" opacity="0.34"/><circle cx="759.1" cy="1313.8" r="1.5" fill="#ffffff" opacity="0.65"/><circle cx="372.3" cy="1408.1" r="1.3" fill="#ffffff" opacity="0.51"/><circle cx="2648.7" cy="1276.4" r="1.2" fill="#ffffff" opacity="0.31"/><circle cx="261.8" cy="1411.8" r="1.1" fill="#ffffff" opacity="0.70"/><circle cx="1277.6" cy="1272" r="0.8" fill="#ffffff" opacity="0.75"/><circle cx="867.8" cy="1369.2" r="0.9" fill="#ffffff" opacity="0.45"/><circle cx="304.3" cy="1350.9" r="1.5" fill="#ffffff" opacity="0.61"/><circle cx="2216.5" cy="1234.7" r="1.6" fill="#ffffff" opacity="0.36"/><circle cx="861.2" cy="1317.2" r="1.3" fill="#ffffff" opacity="0.44"/><circle cx="2032.9" cy="1199.9" r="0.7" fill="#ffffff" opacity="0.51"/><circle cx="1984.7" cy="1399.6" r="1.1" fill="#ffffff" opacity="0.77"/><circle cx="2637.3" cy="1422.6" r="1.3" fill="#ffffff" opacity="0.51"/><circle cx="2188.8" cy="1349.3" r="0.9" fill="#ffffff" opacity="0.39"/><circle cx="1113" cy="1310.8" r="0.7" fill="#ffffff" opacity="0.48"/><circle cx="497.9" cy="1413.2" r="1.1" fill="#ffffff" opacity="0.58"/><circle cx="478.7" cy="1287.2" r="1.6" fill="#ffffff" opacity="0.72"/><circle cx="3137.1" cy="1212.4" r="1.5" fill="#ffffff" opacity="0.70"/><circle cx="1303.5" cy="1259.6" r="1.5" fill="#ffffff" opacity="0.45"/><circle cx="909.6" cy="1337.2" r="1.2" fill="#ffffff" opacity="0.52"/><circle cx="1458.9" cy="1355.8" r="1.4" fill="#ffffff" opacity="0.52"/><circle cx="3232.3" cy="1240" r="1" fill="#ffffff" opacity="0.49"/><circle cx="8.1" cy="1301.3" r="1.1" fill="#ffffff" opacity="0.43"/><circle cx="1551" cy="1294.1" r="1.2" fill="#ffffff" opacity="0.57"/><circle cx="1175.7" cy="1265" r="1.5" fill="#ffffff" opacity="0.33"/><circle cx="3066" cy="1205.1" r="0.9" fill="#ffffff" opacity="0.52"/><circle cx="3399" cy="1227.6" r="0.7" fill="#ffffff" opacity="0.68"/><circle cx="1750.8" cy="1204.4" r="1.5" fill="#ffffff" opacity="0.59"/><circle cx="2327" cy="1199.1" r="1.3" fill="#ffffff" opacity="0.32"/><circle cx="881.4" cy="1318.1" r="1.6" fill="#ffffff" opacity="0.77"/><circle cx="663.3" cy="1405.9" r="1.5" fill="#ffffff" opacity="0.35"/><circle cx="192.3" cy="1223.1" r="1.6" fill="#ffffff" opacity="0.43"/><circle cx="2634" cy="1300" r="1.6" fill="#ffffff" opacity="0.55"/><circle cx="2631.3" cy="1305" r="1.6" fill="#ffffff" opacity="0.55"/><circle cx="2614.6" cy="1308.1" r="1.6" fill="#ffffff" opacity="0.55"/><circle cx="2592" cy="1304.6" r="1.6" fill="#ffffff" opacity="0.55"/><circle cx="2583.8" cy="1293.7" r="1.6" fill="#ffffff" opacity="0.55"/><circle cx="2608.9" cy="1282" r="1.6" fill="#ffffff" opacity="0.55"/><circle cx="2663.5" cy="1281.5" r="1.6" fill="#ffffff" opacity="0.55"/><circle cx="2709.3" cy="1300.5" r="1.6" fill="#ffffff" opacity="0.55"/><text x="1896.9" y="1321.8" font-family="DejaVu Sans Mono,monospace" font-size="12" fill="#8fb5d4" opacity="0.14">0</text><text x="1911.6" y="1384" font-family="DejaVu Sans Mono,monospace" font-size="12" fill="#8fb5d4" opacity="0.11">0</text><text x="1827.4" y="1348" font-family="DejaVu Sans Mono,monospace" font-size="12" fill="#8fb5d4" opacity="0.13">1</text><text x="2174.3" y="1393.7" font-family="DejaVu Sans Mono,monospace" font-size="12" fill="#8fb5d4" opacity="0.15">0</text><text x="2440.6" y="1333.2" font-family="DejaVu Sans Mono,monospace" font-size="12" fill="#8fb5d4" opacity="0.15">0</text><text x="1670.4" y="1339.4" font-family="DejaVu Sans Mono,monospace" font-size="12" fill="#8fb5d4" opacity="0.12">1</text><text x="2458.3" y="1374.7" font-family="DejaVu Sans Mono,monospace" font-size="12" fill="#8fb5d4" opacity="0.12">1</text><text x="2021.8" y="1373.4" font-family="DejaVu Sans Mono,monospace" font-size="12" fill="#8fb5d4" opacity="0.10">0</text><text x="2066.8" y="1350.9" font-family="DejaVu Sans Mono,monospace" font-size="12" fill="#8fb5d4" opacity="0.12">0</text><text x="1939.1" y="1391.3" font-family="DejaVu Sans Mono,monospace" font-size="12" fill="#8fb5d4" opacity="0.11">1</text><text x="1787.8" y="1315.9" font-family="DejaVu Sans Mono,monospace" font-size="12" fill="#8fb5d4" opacity="0.13">0</text><text x="2391" y="1350.7" font-family="DejaVu Sans Mono,monospace" font-size="12" fill="#8fb5d4" opacity="0.15">1</text></svg>